<svg xmlns="http://www.w3.org/2000/svg"><defs><font id="Mohave" horiz-adv-x="874"><font-face font-family="Mohave Light Medium" units-per-em="2000" ascent="1980" descent="-806" alphabetic="0"/><glyph horiz-adv-x="445"/><glyph unicode="!" horiz-adv-x="562" d="M186 420v1080h190V420H186Zm0-420v300h190V0H186Z"/><glyph unicode="&quot;" horiz-adv-x="872" d="m146 1040 80 460h180l-80-460H146Zm320 0 80 460h180l-80-460H466Z"/><glyph unicode="#" horiz-adv-x="1165" d="M1067 982H898V584h169V395H898V0H708v395l-250 1V0H268v396H97v189h171v398H97v189h171v328h190v-328l250-1v329h190v-329h169V982ZM708 584v398l-250 1V585l250-1Z"/><glyph unicode="$" horiz-adv-x="986" d="M544-200H434v1900h110V-200ZM494-32Q331-32 233 70t-99 268v60h190v-60q0-81 46-130t124-50q78 0 124 49t46 131v126q0 46-3 72t-18 43-50 30-99 35q-135 43-209 72t-106 63-38 88-7 147v148q0 167 98 268t262 102q164 0 262-101t98-269v-60H664v60q0 81-46 130t-124 50q-78 0-124-49t-46-131v-148q0-45 3-71t18-43 50-31 99-35q135-43 209-72t106-62 38-88 7-148V338q0-166-98-268T494-32Z"/><glyph unicode="%" horiz-adv-x="1410" d="m297 0 660 1500h157L454 0H297Zm45 812q-109 0-176 68t-68 179v221q0 111 67 179t177 69q109 0 176-68t67-180v-221q0-111-67-179t-176-68Zm0 146q43 0 69 28t27 73v221q0 46-26 74t-70 28q-44 0-71-28t-27-74v-221q0-45 27-73t71-28Zm727-986q-109 0-176 68t-68 179v221q0 111 67 179t177 69q109 0 176-68t67-180V219q0-111-67-179t-176-68Zm0 146q43 0 69 28t27 73v221q0 46-26 74t-70 28q-44 0-71-28t-27-74V219q0-45 27-73t71-28Z"/><glyph unicode="&amp;" horiz-adv-x="1061" d="M504-28Q344-28 246 74t-99 268v125q0 110 43 193t119 127l-162 286v85q0 166 98 268t262 102q164 0 262-101t98-269v-60H677v60q0 81-46 130t-124 50q-78 0-124-49t-46-131v-85l359-615 71 403h159L822 235 937 35V0H762l-36 62q-40-43-94-66T504-28Zm5 190q83 0 129 57L406 616q-69-49-69-149V342q0-81 46-130t126-50Z"/><glyph unicode="'" horiz-adv-x="552" d="m146 1040 80 460h180l-80-460H146Z"/><glyph unicode="(" horiz-adv-x="659" d="M496-360q-163 0-261 102T136 10v1180q0 167 98 268t262 102h120v-190H496q-78 0-124-49t-46-131V10q0-81 46-130t124-50h120v-190H496Z"/><glyph unicode=")" horiz-adv-x="660" d="M43-360v190h120q78 0 124 49t46 131v1180q0 81-46 130t-124 50H43v190h120q164 0 262-101t98-269V10q0-166-98-268T163-360H43Z"/><glyph unicode="*" horiz-adv-x="901" d="M384 1500h135V870H384v630Zm-260-201 66 117 589-340-67-117-588 340Zm655-1L191 958l-67 117 589 340 66-117Z"/><glyph unicode="+" horiz-adv-x="1076" d="M108 451v190h860V451H108Zm336 486h190V157H444v780Z"/><glyph unicode="," horiz-adv-x="552" d="m146-120 80 375h180l-80-375H146Z"/><glyph unicode="-" horiz-adv-x="848" d="M134 451v190h580V451H134Z"/><glyph unicode="." horiz-adv-x="562" d="M186 0v255h190V0H186Z"/><glyph unicode="/" horiz-adv-x="721" d="m-5-100 536 1660h195L190-100H-5Z"/><glyph unicode="0" horiz-adv-x="994" d="M497-32Q334-32 236 70t-99 268v824q0 167 98 268t262 102q164 0 262-101t98-269V338q0-166-98-268T497-32Zm0 190q78 0 124 49t46 131v824q0 81-46 130t-124 50q-78 0-124-49t-46-131V338q0-81 46-130t124-50Zm104 1184h116L393 158H278l323 1184Z"/><glyph unicode="1" horiz-adv-x="597" d="M248 0v1138H34v190h46q80 0 124 40t44 110v22h190V0H248Z"/><glyph unicode="2" horiz-adv-x="896" d="M84 0v167q0 115 38 203t99 157 128 126 128 112 99 111 38 127v159q0 81-46 130t-124 50q-78 0-124-49t-46-131v-60H84v60q0 167 98 268t262 102q164 0 262-102t98-268v-159q0-89-37-162t-97-135-125-119-126-114-97-121-38-140V104l-86 86h606V0H84Z"/><glyph unicode="3" horiz-adv-x="924" d="M438-32Q275-32 177 70T78 338v60h190v-60q0-81 46-130t124-50q78 0 124 49t46 131v156q0 81-46 130t-124 50H308v190h130q78 0 124 49t46 131v118q0 81-46 130t-124 50q-78 0-124-49t-46-131v-60H78v60q0 167 98 268t262 102q164 0 262-101t98-269v-118q0-104-39-183T647 736l1 69q71-47 110-126t40-185V338q0-166-98-268T438-32Z"/><glyph unicode="4" horiz-adv-x="957" d="M580 0v303H41v170l551 1027h178V492h131V303H770V0H580ZM200 415l-47 77h427v650L200 415Z"/><glyph unicode="5" horiz-adv-x="961" d="M501-32Q338-32 240 70t-99 268v60h190v-60q0-81 46-130t124-50q78 0 124 49t46 131v289q0 81-46 130t-127 50q-78 0-122-49t-45-130v-19H141v891h690v-190H245l86 86V838l-35 46q34 55 88 84t131 29q101 0 179-46t122-129 45-195V338q0-166-98-268T501-32Z"/><glyph unicode="6" horiz-adv-x="976" d="M497-32Q334-32 236 70t-99 268v824q0 167 98 268t262 102q164 0 262-101t98-269v-60H667v60q0 81-46 130t-124 50q-78 0-124-49t-46-131V838l-35 46q34 55 88 84t131 29q101 0 179-46t122-129 45-195V338q0-166-98-268T497-32Zm0 190q78 0 124 49t46 131v289q0 81-46 130t-127 50q-78 0-122-49t-45-130V338q0-81 46-130t124-50Z"/><glyph unicode="7" horiz-adv-x="781" d="m161 0 404 1392 61-82H30v190h705v-172L361 0H161Z"/><glyph unicode="8" horiz-adv-x="970" d="M485-32Q322-32 224 70t-99 268v153q0 105 40 184t110 127l1-69q-71 46-111 125t-40 183v121q0 167 98 268t262 102q164 0 262-101t98-269v-121q0-104-39-183T694 733l1 69q71-47 110-126t40-185V338q0-166-98-268T485-32Zm0 190q78 0 124 49t46 131v153q0 81-46 130t-124 50q-78 0-124-49t-46-131V338q0-81 46-130t124-50Zm0 703q78 0 124 49t46 131v121q0 81-46 130t-124 50q-78 0-124-49t-46-131v-121q0-81 46-130t124-50Z"/><glyph unicode="9" horiz-adv-x="977" d="M480-32Q317-32 219 70t-99 268v60h190v-60q0-81 46-130t124-50q78 0 124 49t46 131v324l35-46q-33-55-87-84t-132-29q-101 0-179 46T165 679t-45 194v289q0 167 98 268t262 102q164 0 262-101t98-269V338q0-166-98-268T480-32Zm3 725q79 0 123 49t44 130v290q0 81-46 130t-124 50q-78 0-124-49t-46-131V873q0-81 47-130t126-50Z"/><glyph unicode=":" horiz-adv-x="562" d="M186 635v255h190V635H186Zm0-635v255h190V0H186Z"/><glyph unicode=";" horiz-adv-x="555" d="m124-120 80 375h180l-80-375H124Zm70 755v255h190V635H194Z"/><glyph unicode="&lt;" horiz-adv-x="864" d="M742 0 79 466v140l663 461V867L278 536l464-334V0Z"/><glyph unicode="=" horiz-adv-x="1080" d="M200 251v190h680V251H200Zm0 400v190h680V651H200Z"/><glyph unicode="&gt;" horiz-adv-x="865" d="M120 0v202l464 334-464 331v200l663-461V466L120 0Z"/><glyph unicode="?" horiz-adv-x="869" d="M307 349v63q0 98 29 167t71 123 85 99 71 94 29 108v159q0 81-46 130t-124 50q-78 0-124-49t-46-131v-60H62v60q0 167 98 268t262 102q164 0 262-102t98-268v-159q0-80-28-141t-71-112-86-102-71-107-29-129v-63H307Zm0-349v260h190V0H307Z"/><glyph unicode="@" horiz-adv-x="1371" d="M687 1528q159 0 277-66t184-184 66-278V0h-180v68q-36-44-94-70T815-28q-127 0-208 94t-82 248v296q0 154 84 247t216 93q66 0 122-23t87-64v137q0 105-43 183t-122 121-182 44q-157 0-252-95t-96-253V140q0-143 89-231t235-88h400v-180H663q-151 0-264 62T222-122t-63 262v860q0 159 66 277t185 185 277 66ZM867 142q74 0 120 47t47 125v296q0 77-46 123t-121 47q-74 0-118-46t-44-124V314q0-77 44-124t118-48Z"/><glyph unicode="A" horiz-adv-x="917" d="m46 0 312 1500h204L871 0H676l-54 278H296L241 0H46Zm282 468h262l-144 767h28L328 468Z"/><glyph unicode="B" horiz-adv-x="1016" d="M166 0v1500h370q155 0 247-96t93-254v-135q0-91-33-164t-92-118l-4 70q69-42 109-119t40-179V350q0-157-92-253T556 0H166Zm190 190h200q69 0 109 44t41 116v155q0 72-40 116t-110 44H356V190Zm0 665h180q69 0 109 44t41 116v135q0 72-40 116t-110 44H356V855Z"/><glyph unicode="C" horiz-adv-x="948" d="M864 398v-60q0-166-98-268T504-32Q341-32 243 70t-99 268v824q0 167 98 268t262 102q164 0 262-101t98-269v-60H674v60q0 81-46 130t-124 50q-78 0-124-49t-46-131V338q0-81 46-130t124-50q78 0 124 49t46 131v60h190Z"/><glyph unicode="D" horiz-adv-x="1012" d="M166 0v1500h350q164 0 262-101t98-269V370q0-166-98-268T516 0H166Zm190 190h160q78 0 124 49t46 131v760q0 81-46 130t-124 50H356V190Z"/><glyph unicode="E" horiz-adv-x="861" d="M776 1500v-190H356V860h366V670H356V190h420V0H166v1500h610Z"/><glyph unicode="F" horiz-adv-x="830" d="M166 0v1500h610v-190H356V740h366V550H356V0H166Z"/><glyph unicode="G" horiz-adv-x="984" d="M504-32Q341-32 243 70t-99 268v824q0 167 98 268t262 102q164 0 262-101t98-269v-60H674v60q0 81-46 130t-124 50q-78 0-124-49t-46-131V338q0-81 46-130t124-50q78 0 124 49t46 131v202H498v190h366V338q0-166-98-268T504-32Z"/><glyph unicode="H" horiz-adv-x="1022" d="M166 0v1500h190V740h310v760h190V0H666v550H356V0H166Z"/><glyph unicode="I" horiz-adv-x="522" d="M356 0H166v1500h190V0Z"/><glyph unicode="J" horiz-adv-x="657" d="M31-13v190h112q78 0 124 49t46 131v1143h190V357q0-166-98-268T143-13H31Z"/><glyph unicode="K" horiz-adv-x="988" d="M741 0 421 751l-85-125v313l386 561h205L550 943 946 0H741ZM166 0v1500h190V0H166Z"/><glyph unicode="L" horiz-adv-x="773" d="M356 1500V190h380V0H166v1500h190Z"/><glyph unicode="M" horiz-adv-x="1308" d="M166 0v1500h184L676 255h-44l326 1245h184V0H962v986l22-4L722 0H586L324 982l22 4V0H166Z"/><glyph unicode="N" horiz-adv-x="1042" d="M166 0v1500h155L748 361l-52-4v1143h180V0H721L294 1139l52 4V0H166Z"/><glyph unicode="O" horiz-adv-x="1008" d="M504-32Q341-32 243 70t-99 268v824q0 167 98 268t262 102q164 0 262-101t98-269V338q0-166-98-268T504-32Zm0 190q78 0 124 49t46 131v824q0 81-46 130t-124 50q-78 0-124-49t-46-131V338q0-81 46-130t124-50Z"/><glyph unicode="P" horiz-adv-x="947" d="M166 0v1500h370q155 0 247-96t93-254V975q0-157-92-253t-248-97H356V0H166Zm190 815h180q69 0 109 44t41 116v175q0 72-40 116t-110 44H356V815Z"/><glyph unicode="Q" horiz-adv-x="1008" d="M620-182 439 438h195l179-620H620ZM504-32Q341-32 243 70t-99 268v824q0 167 98 268t262 102q164 0 262-101t98-269V338q0-166-98-268T504-32Zm0 190q78 0 124 49t46 131v824q0 81-46 130t-124 50q-78 0-124-49t-46-131V338q0-81 46-130t124-50Z"/><glyph unicode="R" horiz-adv-x="1018" d="M166 0v1500h370q155 0 247-96t93-254V935q0-104-42-183T713 627l-11 59q83-31 128-96t46-155V0H686v435q0 68-40 109t-110 41H356V0H166Zm190 775h180q69 0 109 44t41 116v215q0 72-40 116t-110 44H356V775Z"/><glyph unicode="S" horiz-adv-x="939" d="M471-32Q308-32 210 70t-99 268v60h190v-60q0-81 46-130t124-50q78 0 124 49t46 131v126q0 46-3 72t-18 43-50 30-99 35q-135 43-209 72t-106 63-38 88-7 147v148q0 167 98 268t262 102q164 0 262-101t98-269v-60H641v60q0 81-46 130t-124 50q-78 0-124-49t-46-131v-148q0-45 3-71t18-43 50-31 99-35q135-43 209-72t106-62 38-88 7-148V338q0-166-98-268T471-32Z"/><glyph unicode="T" horiz-adv-x="744" d="M277 0v1310H32v190h680v-190H467V0H277Z"/><glyph unicode="U" horiz-adv-x="1032" d="M876 1500V338q0-166-98-268T516-32Q353-32 255 70t-99 268v1162h190V338q0-81 46-130t124-50q78 0 124 49t46 131v1162h190Z"/><glyph unicode="V" horiz-adv-x="917" d="M358 0 46 1500h195L475 294h-30l231 1206h195L562 0H358Z"/><glyph unicode="W" horiz-adv-x="1320" d="M272 0 70 1500h195L407 343l-23 1 195 1156h162L936 344l-23-1 142 1157h195L1048 0H844L646 1067h31L476 0H272Z"/><glyph unicode="X" horiz-adv-x="911" d="m46 0 312 751-312 749h196l246-583h-63l244 583h196L554 751 865 0H670L425 584h63L241 0H46Z"/><glyph unicode="Y" horiz-adv-x="931" d="M372 0v740L23 1500h195l280-634h-62l277 634h195L562 740V0H372Z"/><glyph unicode="Z" horiz-adv-x="851" d="m69 0-1 143 545 1246 51-79H69v190h714v-143L238 111l-51 79h596V0H69Z"/><glyph unicode="[" horiz-adv-x="682" d="M159-360v1920h480v-190H349V-170h290v-190H159Z"/><glyph unicode="\" horiz-adv-x="721" d="M709-100H514L-22 1560h195L709-100Z"/><glyph unicode="]" horiz-adv-x="682" d="M43-360v190h290v1540H43v190h480V-360H43Z"/><glyph unicode="^" horiz-adv-x="891" d="m82 987 296 513h140l291-513H623l-175 328-178-328H82Z"/><glyph unicode="_" horiz-adv-x="1112" d="M186-230v190h740v-190H186Z"/><glyph unicode="`" horiz-adv-x="435" d="M228 1216 45 1560h192l129-344H228Z"/><glyph unicode="a" horiz-adv-x="899" d="M371-25q-144 0-222 83T70 271q0 77 26 129t69 86 92 56q58 26 118 42t112 34 82 46 32 79v24q0 76-44 122t-122 46q-76 0-120-46t-44-122v-40H91v30q0 161 94 259t250 99q104 0 181-44t121-126 44-188V0H601v157l31-40Q597 49 531 12T371-25Zm48 169q82 0 132 46t50 140v179q-49-33-111-46t-122-35q-53-20-85-52t-33-88q0-61 43-102t126-42Z"/><glyph unicode="b" horiz-adv-x="931" d="M523-25q-85 0-145 35t-95 99l31 41V0H134v1500h180V940l-31 41q35 64 95 99t145 35q82 0 149-36t109-113 41-199V324q0-122-41-199T673 12 523-25Zm-46 180q78 0 121 47t44 122v443q0 76-43 122t-122 46q-77 0-120-46t-43-122V323q0-75 43-121t120-47Z"/><glyph unicode="c" horiz-adv-x="860" d="M448-25q-103 0-181 45T146 146t-44 188v423q0 107 43 188t122 125 181 45q156 0 250-98t94-260v-20H612v30q0 76-43 122t-121 46q-76 0-121-46t-45-122V324q0-75 45-122t121-47q77 0 120 47t44 122v30h180v-20q0-161-94-260T448-25Z"/><glyph unicode="d" horiz-adv-x="931" d="M408-25q-81 0-149 36T150 125t-41 199v443q0 122 41 199t109 113 149 36q85 0 145-35t95-99l-31-41v560h180V0H617v150l31-41q-34-63-94-98T408-25Zm47 180q77 0 119 46t43 122v444q0 76-42 122t-121 46q-77 0-121-46t-44-122V324q0-75 44-122t122-47Z"/><glyph unicode="e" horiz-adv-x="888" d="M448-25q-103 0-181 45T146 146t-44 188v423q0 107 43 188t122 125 181 45q156 0 250-98t94-260V509H252v170h360v88q0 76-43 122t-121 46q-76 0-121-46t-45-122V324q0-75 45-122t121-47q77 0 120 47t44 122v30h180v-20q0-161-94-260T448-25Z"/><glyph unicode="f" horiz-adv-x="648" d="M208 0v922H7v168h201v71q0 105 43 186t120 127 183 46h87v-180h-87q-76 0-121-49t-45-130v-71h253V922H388V0H208Z"/><glyph unicode="g" horiz-adv-x="914" d="M434-366q-155 0-249 99T90-7v32h180v-42q0-75 44-122t120-47q77 0 121 47t45 122v307l31-41q-34-63-94-98t-146-36q-81 0-149 36T133 265 92 464v303q0 122 41 199t109 113 149 36q85 0 145-35t95-99l-31-41v150h180V-9q0-107-43-187T615-321t-181-45Zm4 661q77 0 119 46t43 122v304q0 76-42 122t-121 46q-77 0-121-46t-44-122V464q0-75 44-122t122-47Z"/><glyph unicode="h" horiz-adv-x="937" d="M134 0v1500h180V939l-31 40q36 66 96 101t146 36q79 0 144-34t105-104 40-180V0H634v768q0 76-43 122t-116 46q-74 0-117-46t-44-122V0H134Z"/><glyph unicode="i" horiz-adv-x="448" d="M134 0v1090h180V0H134Zm0 1197v243h180v-243H134Z"/><glyph unicode="j" horiz-adv-x="448" d="M-96-366v180h65q76 0 120 49T134-7v1097h180V4q0-166-94-268T-31-366h-65Zm230 1563v243h180v-243H134Z"/><glyph unicode="k" horiz-adv-x="866" d="M673 0 407 568 295 421v268l317 402h190L525 727 863 0H673ZM134 0v1500h180V0H134Z"/><glyph unicode="l" horiz-adv-x="448" d="M134 0v1500h180V0H134Z"/><glyph unicode="m" horiz-adv-x="1437" d="M134 0v1090h180V938l-31 40q36 66 96 101t145 36q97 0 173-50t104-158l-45 8q30 93 97 146t171 54q80 0 146-34t105-105 39-179V0h-180v767q0 76-43 122t-116 46q-74 0-117-46t-44-122V0H634v767q0 76-43 122t-116 46q-74 0-117-46t-44-122V0H134Z"/><glyph unicode="n" horiz-adv-x="935" d="M134 0v1090h180V935l-32 36q36 71 98 107t145 37q132 0 210-93t79-255V0H634v767q0 76-43 122t-116 46q-74 0-117-46t-44-122V0H134Z"/><glyph unicode="o" horiz-adv-x="895" d="M448-25q-103 0-181 45T146 146t-44 188v423q0 107 43 188t122 125 181 45q156 0 250-98t94-260V334q0-161-94-260T448-25Zm0 180q77 0 120 47t44 122v443q0 76-43 122t-121 46q-76 0-121-46t-45-122V324q0-75 45-122t121-47Z"/><glyph unicode="p" horiz-adv-x="930" d="M134-360v1450h180V940l-31 41q35 64 95 99t145 35q82 0 149-36t109-113 41-199V324q0-122-41-199T673 12 523-25q-85 0-145 35t-95 99l31 41v-510H134Zm343 515q78 0 121 47t44 122v443q0 76-43 122t-122 46q-77 0-120-46t-43-122V323q0-75 43-121t120-47Z"/><glyph unicode="q" horiz-adv-x="930" d="M616-350v500l31-41q-34-63-94-98T407-25q-81 0-149 36T149 125t-41 199v443q0 122 41 199t109 113 149 36q85 0 145-35t95-99l-31-41v150h180V-350H616ZM454 155q77 0 119 46t43 122v444q0 76-42 122t-121 46q-77 0-121-46t-44-122V324q0-75 44-122t122-47Z"/><glyph unicode="r" horiz-adv-x="578" d="M134 0v1090h180V926l-32 38q36 69 98 104t144 35h48V923h-97q-74 0-117-43t-44-119V0H134Z"/><glyph unicode="s" horiz-adv-x="845" d="M429-25q-158 0-252 94T83 316v30h180v-41q0-67 44-108t120-42q72 0 114 42t42 120q0 49-17 76t-53 42-89 26q-102 23-178 49t-120 83-43 172q0 169 92 259t245 91q159 0 251-93t92-247v-29H583v39q0 69-43 109t-117 41q-73 0-116-41t-44-121q0-48 18-75t54-41 89-27q100-21 176-47t119-84 44-174q0-168-91-259T429-25Z"/><glyph unicode="t" horiz-adv-x="671" d="M542-13q-156 0-250 96t-95 263v577H7v168h190v269h180v-269h250V923H377V346q0-81 45-130t120-49h85V-13h-85Z"/><glyph unicode="u" horiz-adv-x="936" d="M412-25q-79 0-145 36T162 123t-40 200v767h180V323q0-75 43-121t116-47q75 0 118 46t43 122v767h180V0H622v152l31-40q-35-65-96-101T412-25Z"/><glyph unicode="v" horiz-adv-x="842" d="M315 0 14 1090h194l235-890h-41l231 890h194L530 0H315Z"/><glyph unicode="w" horiz-adv-x="1136" d="M224 0 44 1090h187l114-882-27 1 168 881h164l168-881-27-1 113 882h188L912 0H717L552 802h35L419 0H224Z"/><glyph unicode="x" horiz-adv-x="799" d="m15 0 295 546-295 544h190l235-432h-80l234 432h190L490 546 784 0H594L360 434h80L205 0H15Z"/><glyph unicode="y" horiz-adv-x="840" d="m228-360 97 345L14 1090h196l233-874h-41l228 874h197L416-360H228Z"/><glyph unicode="z" horiz-adv-x="772" d="M49 0v141l501 842 42-73H57v180h666V949L233 106l-43 74h525V0H49Z"/><glyph unicode="{" horiz-adv-x="749" d="M586-360q-163 0-261 102T226 10v386q0 50-27 80t-73 30H26v190h100q46 0 73 30t27 80v384q0 167 98 268t262 102h120v-190H586q-78 0-124-49t-46-131V806q0-60-24-114t-67-90q42-36 66-91t25-115V10q0-81 46-130t124-50h120v-190H586Z"/><glyph unicode="|" horiz-adv-x="590" d="M390-300H200v1860h190V-300Z"/><glyph unicode="}" horiz-adv-x="749" d="M43-360v190h120q78 0 124 49t46 131v386q0 60 24 115t67 91q-42 36-66 90t-25 114v384q0 81-46 130t-124 50H43v190h120q164 0 262-101t98-269V806q0-49 27-79t73-31h100V506H623q-45 0-72-30t-28-80V10q0-166-98-268T163-360H43Z"/><glyph unicode="~" horiz-adv-x="1155" d="M165 388v46q0 115 63 179t179 65q64 0 109-17t79-41 65-40 69-18q45 0 61 26t16 55v42h181v-54q0-111-57-175t-157-64q-58 0-102 19t-81 45-73 44-77 19q-42 0-68-24t-26-70v-37H165Z"/><glyph horiz-adv-x="445"/><glyph unicode="¡" horiz-adv-x="562" d="M186-410V670h190V-410H186Zm0 1200v300h190V790H186Z"/><glyph unicode="¢" horiz-adv-x="957" d="M544-200H434v1490h110V-200ZM492-25q-103 0-181 45T190 146t-44 188v423q0 107 43 188t122 125 181 45q156 0 250-98t94-260v-20H656v30q0 76-43 122t-121 46q-76 0-121-46t-45-122V324q0-75 45-122t121-47q77 0 120 47t44 122v30h180v-20q0-161-94-260T492-25Z"/><glyph unicode="£" horiz-adv-x="1074" d="M257 0v1158q0 167 98 268t262 102q164 0 262-101t98-269v-60H787v60q0 81-46 130t-124 50q-78 0-124-49t-46-131V0H257ZM117 666v170h590V666H117Zm0-666v170h755V0H117Z"/><glyph unicode="¤" horiz-adv-x="1117" d="m231 134-95 96 137 137q-23 39-37 87t-15 104q0 55 14 102t38 85L136 882l95 95 138-137q82 55 190 55 109 0 189-53l135 135 96-95-135-135q25-38 38-86t14-103q0-110-54-191l137-137-96-96-137 138q-39-27-87-40t-100-13q-51 0-99 13t-90 41L231 134Zm328 244q74 0 126 50t52 130q0 81-52 129t-126 49q-73 0-126-48t-54-130q0-80 52-130t128-50Z"/><glyph unicode="¥" horiz-adv-x="1031" d="M221 580v170h590V580H221Zm0-357v170h590V223H221ZM422 0v740L73 1500h195l249-532 246 532h195L612 740V0H422Z"/><glyph unicode="¦" horiz-adv-x="590" d="M390-300H200v731h190v-731Zm0 1129H200v731h190V829Z"/><glyph unicode="§" horiz-adv-x="983" d="M499-88Q342-88 248 14t-95 268v20h180v-31q0-80 45-129t122-50q68 0 111 41t43 121q0 53-20 80t-56 41-84 23q-100 22-177 48t-120 85-44 175q0 87 26 148t73 106q-47 41-75 105t-28 139q0 95 42 168t118 114 175 42q158 0 252-102t94-268v-20H650v32q0 81-45 129t-122 49q-68 0-111-41t-43-123q0-44 16-70t51-43 94-29q102-21 178-48t119-85 43-174q0-85-25-147t-74-108q49-40 76-104t27-139q0-94-42-167T675-46 499-88Zm-4 655q70 1 112 42t43 111q0 68-44 110t-116 43q-70 0-113-41t-44-110q0-70 45-112t117-43Z"/><glyph unicode="¨" horiz-adv-x="724" d="M134 1320v240h160v-240H134Zm297 0v240h159v-240H431Z"/><glyph unicode="©" horiz-adv-x="1672" d="M834-28q-214 0-376 97T205 341t-92 411q0 233 90 407t254 272 381 97q216 0 378-95t252-268 91-406q0-233-90-410T1215 72 834-28Zm0 130q179 0 312 83t208 232 75 342q0 194-74 337t-207 223-310 79q-179 0-313-80t-208-226-74-340q0-197 75-343t208-226 308-81Zm2 180q-99 0-159 61t-60 161v492q0 100 60 161t159 61q100 0 158-61t59-161v-40H923v40q0 41-23 66t-64 26q-41 0-65-25t-24-67V504q0-41 24-66t65-26q41 0 64 26t23 66v40h130v-40q0-98-58-160t-159-62Z"/><glyph unicode="ª" horiz-adv-x="702" d="M299 834q-84 0-130 51t-46 128q0 71 33 107t76 56q46 22 91 34t75 31 31 56v14q0 39-23 63t-63 24q-39 0-62-24t-24-63v-28H135v20q0 98 57 157t151 60q95 0 151-60t57-157V849H429v97l22-27q-21-42-61-63t-91-22Zm35 113q42 0 68 24t27 74v102q-24-17-56-25t-65-21q-27-11-44-28t-18-48q0-31 22-54t66-24Z"/><glyph unicode="«" horiz-adv-x="1125" d="M1028 0 565 437v110l463 437V765L748 492l280-273V0ZM505 0 42 437v110l463 437V765L225 492l280-273V0Z"/><glyph unicode="¬" horiz-adv-x="1121" d="M731 226v225H141v190h780V226H731Z"/><glyph unicode="­" horiz-adv-x="848" d="M147 451v190h580V451H147Z"/><glyph unicode="®" horiz-adv-x="1672" d="M834-28q-214 0-376 97T205 341t-92 411q0 233 90 407t254 272 381 97q216 0 378-95t252-268 91-406q0-233-90-410T1215 72 834-28Zm0 130q179 0 312 83t208 232 75 342q0 194-74 337t-207 223-310 79q-179 0-313-80t-208-226-74-340q0-197 75-343t208-226 308-81ZM619 300v900h222q96 0 153-58t57-156V852q0-105-68-164 30-18 49-50t19-80V300H921v258q0 36-21 58t-59 22h-92V300H619Zm130 468h92q37 0 58 23t22 61v134q0 38-21 61t-59 23h-92V768Z"/><glyph unicode="¯" horiz-adv-x="719" d="M134 1500h451v-137H134v137Z"/><glyph unicode="°" horiz-adv-x="822" d="M411 1007q-70 0-129 32t-96 92-36 136q0 78 36 136t95 92 129 33q71 0 130-32t94-91 36-138q0-77-35-136t-94-91-130-33Zm-1 132q51 0 89 35t39 93q0 59-39 93t-89 35q-51 0-89-34t-39-94q0-58 38-93t90-35Z"/><glyph unicode="±" horiz-adv-x="1044" d="M132 585v190h780V585H132Zm296 446h190V331H428v700ZM132 0v190h780V0H132Z"/><glyph unicode="²" horiz-adv-x="573" d="M65 660v117q0 84 31 142t76 101 91 78 77 72 31 84v104q0 41-24 66t-65 26q-39 0-63-25t-24-67v-40H65v40q0 99 60 160t157 62q99 0 159-61t60-161v-104q0-66-30-114t-74-88-89-75-75-78-31-95v-14h299V660H65Z"/><glyph unicode="³" horiz-adv-x="592" d="M279 640q-99 0-159 61T60 862v40h130v-40q0-40 24-66t65-26q39 0 63 26t24 66v104q0 41-24 66t-63 26h-85v130h85q39 0 63 25t24 67v78q0 41-24 66t-63 26q-40 0-64-25t-25-67v-40H60v40q0 99 60 160t159 62q98 0 157-61t60-161v-78q0-47-14-88t-46-70q28-26 44-65t16-91V862q0-99-59-160t-158-62Z"/><glyph unicode="´" horiz-adv-x="435" d="m69 1216 129 344h192l-183-344H69Z"/><glyph unicode="µ" horiz-adv-x="1057" d="M492-25q-80 0-146 36T240 127t-40 207v757h180V334q0-81 43-130t118-49q77 0 119 49t43 130v115h81V345q0-166-73-268T492-25ZM703 0v1091h180V0H703ZM200-300v1391h180V-300H200Z"/><glyph unicode="¶" horiz-adv-x="932" d="M732-300H542V745H422q-154 0-247 96t-93 254v55q0 158 93 254t247 96h310V-300Z"/><glyph unicode="·" horiz-adv-x="542" d="M186 425v240h170V425H186Z"/><glyph unicode="¸" horiz-adv-x="538" d="M118-471v136h145q31 0 50 17t19 44q0 28-19 45t-50 18h-81l-62 37V39h137v-178l-71 24q87 32 150 14t98-67 35-113q0-81-56-135t-150-55H118Z"/><glyph unicode="¹" horiz-adv-x="406" d="M156 660v676H24v130h32q47 0 73 24t27 66v14h130V660H156Z"/><glyph unicode="º" horiz-adv-x="674" d="M337 834q-93 0-150 60t-58 158v251q0 98 57 157t151 60q94 0 151-59t57-158v-251q0-97-56-157t-152-61Zm0 122q40 0 63 24t23 63v268q0 39-23 63t-63 24q-39 0-62-24t-23-63v-268q0-38 23-62t62-25Z"/><glyph unicode="»" horiz-adv-x="1125" d="M619 0v219l280 273-280 273v219l463-437V437L619 0ZM96 0v219l280 273L96 765v219l463-437V437L96 0Z"/><glyph unicode="¼" horiz-adv-x="1443" d="M156 600v676H24v130h32q47 0 73 24t27 66v14h130V600H156ZM216 0l660 1500h157L373 0H216Zm962 0v172H863v115l326 613h119V303h75V172h-75V0h-130ZM999 303h179v347L999 303Z"/><glyph unicode="½" horiz-adv-x="1416" d="M156 600v676H24v130h32q47 0 73 24t27 66v14h130V600H156ZM216 0l660 1500h157L373 0H216Zm692 0v117q0 84 31 142t76 101 91 78 77 72 31 84v104q0 41-24 66t-65 26q-39 0-63-25t-24-67v-40H908v40q0 99 60 160t157 62q99 0 159-61t60-161V594q0-66-30-114t-74-88-89-75-75-78-31-95v-14h299V0H908Z"/><glyph unicode="¾" horiz-adv-x="1629" d="M279 580q-99 0-159 61T60 802v40h130v-40q0-40 24-66t65-26q39 0 63 26t24 66v104q0 41-24 66t-63 26h-85v130h85q39 0 63 25t24 67v78q0 41-24 66t-63 26q-40 0-64-25t-25-67v-40H60v40q0 99 60 160t159 62q98 0 157-61t60-161v-78q0-47-14-88t-46-70q28-26 44-65t16-91V802q0-99-59-160t-158-62ZM402 0l660 1500h157L559 0H402Zm962 0v172h-315v115l326 613h119V303h75V172h-75V0h-130Zm-179 303h179v347l-179-347Z"/><glyph unicode="¿" horiz-adv-x="870" d="M562 741v-63q0-97-28-167t-71-123-85-98-72-94-29-109V-72q0-81 46-130t124-50q78 0 124 49t46 131v60h190v-60q0-166-98-268T447-442q-163 0-261 102T87-72V87q0 80 29 141t71 113 85 102 71 106 29 129v63h190Zm0 349V830H372v260h190Z"/><glyph unicode="À" horiz-adv-x="917" d="m46 0 312 1500h204L871 0H676l-54 278H296L241 0H46Zm282 468h262l-144 767h28L328 468Zm66 1158-183 344h192l129-344H394Z"/><glyph unicode="Á" horiz-adv-x="917" d="m46 0 312 1500h204L871 0H676l-54 278H296L241 0H46Zm282 468h262l-144 767h28L328 468Zm60 1158 129 344h192l-183-344H388Z"/><glyph unicode="Â" horiz-adv-x="917" d="m46 0 312 1500h204L871 0H676l-54 278H296L241 0H46Zm282 468h262l-144 767h28L328 468ZM156 1675l227 295h150l227-295H586l-127 178-129-178H156Z"/><glyph unicode="Ã" horiz-adv-x="917" d="m46 0 312 1500h204L871 0H676l-54 278H296L241 0H46Zm282 468h262l-144 767h28L328 468Zm262 1197q-46 0-79 17t-57 33q-25 19-45 33t-41 15q-18 0-27-13t-9-33v-42H187v53q0 76 37 115t100 40q44 0 78-16t59-35q25-17 45-32t40-16q20 0 28 15t8 33v46h145v-59q0-75-37-114t-100-40Z"/><glyph unicode="Ä" horiz-adv-x="917" d="m46 0 312 1500h204L871 0H676l-54 278H296L241 0H46Zm282 468h262l-144 767h28L328 468Zm-94 1262v240h160v-240H234Zm297 0v240h159v-240H531Z"/><glyph unicode="Å" horiz-adv-x="917" d="m46 0 312 1500h204L871 0H676l-54 278H296L241 0H46Zm282 468h262l-144 767h28L328 468Zm133 1085q-79 0-137 53t-59 142q0 88 58 141t137 54q79 0 137-53t58-142q0-88-57-141t-137-54Zm0 115q31 0 55 22t24 58q0 36-24 58t-56 22q-30 0-55-22t-25-58q0-36 25-58t56-22Z"/><glyph unicode="Æ" horiz-adv-x="1301" d="m46 0 312 1500h858v-190H793V860h369V670H793V190h423V0H603v278H298L241 0H46Zm287 468h270v842H500L333 468Z"/><glyph unicode="Ç" horiz-adv-x="948" d="M864 398v-60q0-166-98-268T504-32Q341-32 243 70t-99 268v824q0 167 98 268t262 102q164 0 262-101t98-269v-60H674v60q0 81-46 130t-124 50q-78 0-124-49t-46-131V338q0-81 46-130t124-50q78 0 124 49t46 131v60h190ZM442-471v136h145q31 0 50 17t19 44q0 28-19 45t-50 18h-81l-62 37V39h137v-178l-71 24q87 32 150 14t98-67 35-113q0-81-56-135t-150-55H442Z"/><glyph unicode="È" horiz-adv-x="861" d="M776 1500v-190H356V860h366V670H356V190h420V0H166v1500h610Zm-416 126-183 344h192l129-344H360Z"/><glyph unicode="É" horiz-adv-x="861" d="M776 1500v-190H356V860h366V670H356V190h420V0H166v1500h610Zm-422 126 129 344h192l-183-344H354Z"/><glyph unicode="Ê" horiz-adv-x="861" d="M776 1500v-190H356V860h366V670H356V190h420V0H166v1500h610Zm-654 175 227 295h150l227-295H552l-127 178-129-178H122Z"/><glyph unicode="Ë" horiz-adv-x="861" d="M776 1500v-190H356V860h366V670H356V190h420V0H166v1500h610Zm-576 230v240h160v-240H200Zm297 0v240h159v-240H497Z"/><glyph unicode="Ì" horiz-adv-x="522" d="M356 0H166v1500h190V0ZM197 1626 14 1970h192l129-344H197Z"/><glyph unicode="Í" horiz-adv-x="522" d="M356 0H166v1500h190V0ZM191 1626l129 344h192l-183-344H191Z"/><glyph unicode="Î" horiz-adv-x="522" d="M356 0H166v1500h190V0ZM-41 1675l227 295h150l227-295H389l-127 178-129-178H-41Z"/><glyph unicode="Ï" horiz-adv-x="522" d="M356 0H166v1500h190V0ZM37 1730v240h160v-240H37Zm297 0v240h159v-240H334Z"/><glyph unicode="Ð" horiz-adv-x="1012" d="M22 671v160h480V671H22ZM166 0v1500h350q164 0 262-101t98-269V370q0-166-98-268T516 0H166Zm190 190h160q78 0 124 49t46 131v760q0 81-46 130t-124 50H356V190Z"/><glyph unicode="Ñ" horiz-adv-x="1042" d="M166 0v1500h155L748 361l-52-4v1143h180V0H721L294 1139l52 4V0H166Zm486 1665q-46 0-79 17t-57 33q-25 19-45 33t-41 15q-18 0-27-13t-9-33v-42H249v53q0 76 37 115t100 40q44 0 78-16t59-35q25-17 45-32t40-16q20 0 28 15t8 33v46h145v-59q0-75-37-114t-100-40Z"/><glyph unicode="Ò" horiz-adv-x="1008" d="M504-32Q341-32 243 70t-99 268v824q0 167 98 268t262 102q164 0 262-101t98-269V338q0-166-98-268T504-32Zm0 190q78 0 124 49t46 131v824q0 81-46 130t-124 50q-78 0-124-49t-46-131V338q0-81 46-130t124-50Zm-65 1468-183 344h192l129-344H439Z"/><glyph unicode="Ó" horiz-adv-x="1008" d="M504-32Q341-32 243 70t-99 268v824q0 167 98 268t262 102q164 0 262-101t98-269V338q0-166-98-268T504-32Zm0 190q78 0 124 49t46 131v824q0 81-46 130t-124 50q-78 0-124-49t-46-131V338q0-81 46-130t124-50Zm-71 1468 129 344h192l-183-344H433Z"/><glyph unicode="Ô" horiz-adv-x="1008" d="M504-32Q341-32 243 70t-99 268v824q0 167 98 268t262 102q164 0 262-101t98-269V338q0-166-98-268T504-32Zm0 190q78 0 124 49t46 131v824q0 81-46 130t-124 50q-78 0-124-49t-46-131V338q0-81 46-130t124-50ZM201 1675l227 295h150l227-295H631l-127 178-129-178H201Z"/><glyph unicode="Õ" horiz-adv-x="1008" d="M504-32Q341-32 243 70t-99 268v824q0 167 98 268t262 102q164 0 262-101t98-269V338q0-166-98-268T504-32Zm0 190q78 0 124 49t46 131v824q0 81-46 130t-124 50q-78 0-124-49t-46-131V338q0-81 46-130t124-50Zm131 1507q-46 0-79 17t-57 33q-25 19-45 33t-41 15q-18 0-27-13t-9-33v-42H232v53q0 76 37 115t100 40q44 0 78-16t59-35q25-17 45-32t40-16q20 0 28 15t8 33v46h145v-59q0-75-37-114t-100-40Z"/><glyph unicode="Ö" horiz-adv-x="1008" d="M504-32Q341-32 243 70t-99 268v824q0 167 98 268t262 102q164 0 262-101t98-269V338q0-166-98-268T504-32Zm0 190q78 0 124 49t46 131v824q0 81-46 130t-124 50q-78 0-124-49t-46-131V338q0-81 46-130t124-50ZM279 1730v240h160v-240H279Zm297 0v240h159v-240H576Z"/><glyph unicode="×" horiz-adv-x="908" d="M663 205 112 756l134 135 552-552-135-134Zm-418-1L111 339l551 551 135-134-552-552Z"/><glyph unicode="Ø" horiz-adv-x="1008" d="M162-68H37l811 1634h125L162-68Zm342 36Q341-32 243 70t-99 268v824q0 167 98 268t262 102q164 0 262-101t98-269V338q0-166-98-268T504-32Zm0 190q78 0 124 49t46 131v824q0 81-46 130t-124 50q-78 0-124-49t-46-131V338q0-81 46-130t124-50Z"/><glyph unicode="Ù" horiz-adv-x="1032" d="M876 1500V338q0-166-98-268T516-32Q353-32 255 70t-99 268v1162h190V338q0-81 46-130t124-50q78 0 124 49t46 131v1162h190Zm-424 126-183 344h192l129-344H452Z"/><glyph unicode="Ú" horiz-adv-x="1032" d="M876 1500V338q0-166-98-268T516-32Q353-32 255 70t-99 268v1162h190V338q0-81 46-130t124-50q78 0 124 49t46 131v1162h190Zm-430 126 129 344h192l-183-344H446Z"/><glyph unicode="Û" horiz-adv-x="1032" d="M876 1500V338q0-166-98-268T516-32Q353-32 255 70t-99 268v1162h190V338q0-81 46-130t124-50q78 0 124 49t46 131v1162h190Zm-662 175 227 295h150l227-295H644l-127 178-129-178H214Z"/><glyph unicode="Ü" horiz-adv-x="1032" d="M876 1500V338q0-166-98-268T516-32Q353-32 255 70t-99 268v1162h190V338q0-81 46-130t124-50q78 0 124 49t46 131v1162h190Zm-584 230v240h160v-240H292Zm297 0v240h159v-240H589Z"/><glyph unicode="Ý" horiz-adv-x="931" d="M372 0v740L23 1500h195l280-634h-62l277 634h195L562 740V0H372Zm23 1626 129 344h192l-183-344H395Z"/><glyph unicode="Þ" horiz-adv-x="947" d="M166 0v1500h190v-214h180q155 0 247-96t93-254V761q0-157-92-253t-248-97H356V0H166Zm190 601h180q69 0 109 44t41 116v175q0 72-40 116t-110 44H356V601Z"/><glyph unicode="ß" horiz-adv-x="992" d="M134-240v1392q0 114 46 200t130 133 194 47q111 0 194-47t130-133 46-200v-137q0-91-33-164t-92-118l-4 71q69-44 109-121t40-178V335q0-157-92-253T554-15h-94v190h94q69 0 109 44t41 116v170q0 72-40 116t-110 44h-92v190h72q69 0 109 44t41 116v137q0 86-49 138t-131 52q-81 0-130-52t-50-138V-240H134Z"/><glyph unicode="à" horiz-adv-x="899" d="M371-25q-144 0-222 83T70 271q0 77 26 129t69 86 92 56q58 26 118 42t112 34 82 46 32 79v24q0 76-44 122t-122 46q-76 0-120-46t-44-122v-40H91v30q0 161 94 259t250 99q104 0 181-44t121-126 44-188V0H601v157l31-40Q597 49 531 12T371-25Zm48 169q82 0 132 46t50 140v179q-49-33-111-46t-122-35q-53-20-85-52t-33-88q0-61 43-102t126-42Zm-49 1072-183 344h192l129-344H370Z"/><glyph unicode="á" horiz-adv-x="899" d="M371-25q-144 0-222 83T70 271q0 77 26 129t69 86 92 56q58 26 118 42t112 34 82 46 32 79v24q0 76-44 122t-122 46q-76 0-120-46t-44-122v-40H91v30q0 161 94 259t250 99q104 0 181-44t121-126 44-188V0H601v157l31-40Q597 49 531 12T371-25Zm48 169q82 0 132 46t50 140v179q-49-33-111-46t-122-35q-53-20-85-52t-33-88q0-61 43-102t126-42Zm-55 1072 129 344h192l-183-344H364Z"/><glyph unicode="â" horiz-adv-x="899" d="M371-25q-144 0-222 83T70 271q0 77 26 129t69 86 92 56q58 26 118 42t112 34 82 46 32 79v24q0 76-44 122t-122 46q-76 0-120-46t-44-122v-40H91v30q0 161 94 259t250 99q104 0 181-44t121-126 44-188V0H601v157l31-40Q597 49 531 12T371-25Zm48 169q82 0 132 46t50 140v179q-49-33-111-46t-122-35q-53-20-85-52t-33-88q0-61 43-102t126-42ZM132 1265l227 295h150l227-295H562l-127 178-129-178H132Z"/><glyph unicode="ã" horiz-adv-x="899" d="M371-25q-144 0-222 83T70 271q0 77 26 129t69 86 92 56q58 26 118 42t112 34 82 46 32 79v24q0 76-44 122t-122 46q-76 0-120-46t-44-122v-40H91v30q0 161 94 259t250 99q104 0 181-44t121-126 44-188V0H601v157l31-40Q597 49 531 12T371-25Zm48 169q82 0 132 46t50 140v179q-49-33-111-46t-122-35q-53-20-85-52t-33-88q0-61 43-102t126-42Zm147 1367q-46 0-79 17t-57 33q-25 19-45 33t-41 15q-18 0-27-13t-9-33v-42H163v53q0 76 37 115t100 40q44 0 78-16t59-35q25-17 45-32t40-16q20 0 28 15t8 33v46h145v-59q0-75-37-114t-100-40Z"/><glyph unicode="ä" horiz-adv-x="899" d="M371-25q-144 0-222 83T70 271q0 77 26 129t69 86 92 56q58 26 118 42t112 34 82 46 32 79v24q0 76-44 122t-122 46q-76 0-120-46t-44-122v-40H91v30q0 161 94 259t250 99q104 0 181-44t121-126 44-188V0H601v157l31-40Q597 49 531 12T371-25Zm48 169q82 0 132 46t50 140v179q-49-33-111-46t-122-35q-53-20-85-52t-33-88q0-61 43-102t126-42ZM210 1320v240h160v-240H210Zm297 0v240h159v-240H507Z"/><glyph unicode="å" horiz-adv-x="899" d="M371-25q-144 0-222 83T70 271q0 77 26 129t69 86 92 56q58 26 118 42t112 34 82 46 32 79v24q0 76-44 122t-122 46q-76 0-120-46t-44-122v-40H91v30q0 161 94 259t250 99q104 0 181-44t121-126 44-188V0H601v157l31-40Q597 49 531 12T371-25Zm48 169q82 0 132 46t50 140v179q-49-33-111-46t-122-35q-53-20-85-52t-33-88q0-61 43-102t126-42Zm18 999q-79 0-137 53t-59 142q0 88 58 141t137 54q79 0 137-53t58-142q0-88-57-141t-137-54Zm0 115q31 0 55 22t24 58q0 36-24 58t-56 22q-30 0-55-22t-25-58q0-36 25-58t56-22Z"/><glyph unicode="æ" horiz-adv-x="1387" d="M368-25q-141 0-219 83T70 271q0 78 26 130t69 85 92 56q58 26 118 42t112 34 82 46 32 79v24q0 76-44 122t-122 46q-76 0-120-46t-44-122v-40H91v30q0 161 94 259t250 99q97 0 172-40t120-112h-69q43 72 118 112t171 40q156 0 250-98t94-260V509H781V324q0-75 45-122t121-47q77 0 120 47t44 122v30h180v-20q0-161-94-260T947-25q-113 0-197 55T629 179l50 12Q643 78 557 27T368-25Zm51 169q82 0 132 46t50 140v179q-49-33-111-46t-122-35q-53-20-85-52t-33-88q0-61 43-102t126-42Zm362 535h330v88q0 76-43 122t-121 46q-76 0-121-46t-45-122v-88Z"/><glyph unicode="ç" horiz-adv-x="860" d="M448-25q-103 0-181 45T146 146t-44 188v423q0 107 43 188t122 125 181 45q156 0 250-98t94-260v-20H612v30q0 76-43 122t-121 46q-76 0-121-46t-45-122V324q0-75 45-122t121-47q77 0 120 47t44 122v30h180v-20q0-161-94-260T448-25Zm-62-446v136h145q31 0 50 17t19 44q0 28-19 45t-50 18h-81l-62 37V39h137v-178l-71 24q87 32 150 14t98-67 35-113q0-81-56-135t-150-55H386Z"/><glyph unicode="è" horiz-adv-x="888" d="M448-25q-103 0-181 45T146 146t-44 188v423q0 107 43 188t122 125 181 45q156 0 250-98t94-260V509H252v170h360v88q0 76-43 122t-121 46q-76 0-121-46t-45-122V324q0-75 45-122t121-47q77 0 120 47t44 122v30h180v-20q0-161-94-260T448-25Zm-65 1241-183 344h192l129-344H383Z"/><glyph unicode="é" horiz-adv-x="888" d="M448-25q-103 0-181 45T146 146t-44 188v423q0 107 43 188t122 125 181 45q156 0 250-98t94-260V509H252v170h360v88q0 76-43 122t-121 46q-76 0-121-46t-45-122V324q0-75 45-122t121-47q77 0 120 47t44 122v30h180v-20q0-161-94-260T448-25Zm-71 1241 129 344h192l-183-344H377Z"/><glyph unicode="ê" horiz-adv-x="888" d="M448-25q-103 0-181 45T146 146t-44 188v423q0 107 43 188t122 125 181 45q156 0 250-98t94-260V509H252v170h360v88q0 76-43 122t-121 46q-76 0-121-46t-45-122V324q0-75 45-122t121-47q77 0 120 47t44 122v30h180v-20q0-161-94-260T448-25ZM145 1265l227 295h150l227-295H575l-127 178-129-178H145Z"/><glyph unicode="ë" horiz-adv-x="888" d="M448-25q-103 0-181 45T146 146t-44 188v423q0 107 43 188t122 125 181 45q156 0 250-98t94-260V509H252v170h360v88q0 76-43 122t-121 46q-76 0-121-46t-45-122V324q0-75 45-122t121-47q77 0 120 47t44 122v30h180v-20q0-161-94-260T448-25ZM223 1320v240h160v-240H223Zm297 0v240h159v-240H520Z"/><glyph unicode="ì" horiz-adv-x="448" d="M134 0v1090h180V0H134Zm282 1216-183 344h192l129-344H416Z"/><glyph unicode="í" horiz-adv-x="448" d="M134 0v1090h180V0H134Zm20 1216 129 344h192l-183-344H154Z"/><glyph unicode="î" horiz-adv-x="448" d="M134 0v1090h180V0H134Zm44 1265 227 295h150l227-295H608l-127 178-129-178H178Z"/><glyph unicode="ï" horiz-adv-x="448" d="M134 0v1090h180V0H134ZM0 1320v240h160v-240H0Zm297 0v240h159v-240H297Z"/><glyph unicode="ð" horiz-adv-x="931" d="M503 1500q132 0 213-85t81-224V0H617v150l31-41q-34-63-94-98T408-25q-81 0-149 36T150 125t-41 199v443q0 122 41 199t109 113 149 36q85 0 145-35t95-99l-31-41v251q0 76-44 122t-120 47h-48v140h98ZM455 155q77 0 119 46t43 122v444q0 76-42 122t-121 46q-77 0-121-46t-44-122V324q0-75 44-122t122-47Zm8 984v122l436 117v-122l-436-117Z"/><glyph unicode="ñ" horiz-adv-x="935" d="M134 0v1090h180V935l-32 36q36 71 98 107t145 37q132 0 210-93t79-255V0H634v767q0 76-43 122t-116 46q-74 0-117-46t-44-122V0H134Zm471 1511q-46 0-79 17t-57 33q-25 19-45 33t-41 15q-18 0-27-13t-9-33v-42H202v53q0 76 37 115t100 40q44 0 78-16t59-35q25-17 45-32t40-16q20 0 28 15t8 33v46h145v-59q0-75-37-114t-100-40Z"/><glyph unicode="ò" horiz-adv-x="895" d="M448-25q-103 0-181 45T146 146t-44 188v423q0 107 43 188t122 125 181 45q156 0 250-98t94-260V334q0-161-94-260T448-25Zm0 180q77 0 120 47t44 122v443q0 76-43 122t-121 46q-76 0-121-46t-45-122V324q0-75 45-122t121-47Zm-65 1061-183 344h192l129-344H383Z"/><glyph unicode="ó" horiz-adv-x="895" d="M448-25q-103 0-181 45T146 146t-44 188v423q0 107 43 188t122 125 181 45q156 0 250-98t94-260V334q0-161-94-260T448-25Zm0 180q77 0 120 47t44 122v443q0 76-43 122t-121 46q-76 0-121-46t-45-122V324q0-75 45-122t121-47Zm-71 1061 129 344h192l-183-344H377Z"/><glyph unicode="ô" horiz-adv-x="895" d="M448-25q-103 0-181 45T146 146t-44 188v423q0 107 43 188t122 125 181 45q156 0 250-98t94-260V334q0-161-94-260T448-25Zm0 180q77 0 120 47t44 122v443q0 76-43 122t-121 46q-76 0-121-46t-45-122V324q0-75 45-122t121-47ZM145 1265l227 295h150l227-295H575l-127 178-129-178H145Z"/><glyph unicode="õ" horiz-adv-x="895" d="M448-25q-103 0-181 45T146 146t-44 188v423q0 107 43 188t122 125 181 45q156 0 250-98t94-260V334q0-161-94-260T448-25Zm0 180q77 0 120 47t44 122v443q0 76-43 122t-121 46q-76 0-121-46t-45-122V324q0-75 45-122t121-47Zm131 1356q-46 0-79 17t-57 33q-25 19-45 33t-41 15q-18 0-27-13t-9-33v-42H176v53q0 76 37 115t100 40q44 0 78-16t59-35q25-17 45-32t40-16q20 0 28 15t8 33v46h145v-59q0-75-37-114t-100-40Z"/><glyph unicode="ö" horiz-adv-x="895" d="M448-25q-103 0-181 45T146 146t-44 188v423q0 107 43 188t122 125 181 45q156 0 250-98t94-260V334q0-161-94-260T448-25Zm0 180q77 0 120 47t44 122v443q0 76-43 122t-121 46q-76 0-121-46t-45-122V324q0-75 45-122t121-47ZM223 1320v240h160v-240H223Zm297 0v240h159v-240H520Z"/><glyph unicode="÷" horiz-adv-x="1062" d="M101 451v190h860V451H101Zm336-334v255h190V117H437Zm0 605v255h190V722H437Z"/><glyph unicode="ø" horiz-adv-x="895" d="M193-41H68l633 1171h125L193-41Zm255 16q-103 0-181 45T146 146t-44 188v423q0 107 43 188t122 125 181 45q156 0 250-98t94-260V334q0-161-94-260T448-25Zm0 180q77 0 120 47t44 122v443q0 76-43 122t-121 46q-76 0-121-46t-45-122V324q0-75 45-122t121-47Z"/><glyph unicode="ù" horiz-adv-x="936" d="M412-25q-79 0-145 36T162 123t-40 200v767h180V323q0-75 43-121t116-47q75 0 118 46t43 122v767h180V0H622v152l31-40q-35-65-96-101T412-25Zm-14 1241-183 344h192l129-344H398Z"/><glyph unicode="ú" horiz-adv-x="936" d="M412-25q-79 0-145 36T162 123t-40 200v767h180V323q0-75 43-121t116-47q75 0 118 46t43 122v767h180V0H622v152l31-40q-35-65-96-101T412-25Zm-20 1241 129 344h192l-183-344H392Z"/><glyph unicode="û" horiz-adv-x="936" d="M412-25q-79 0-145 36T162 123t-40 200v767h180V323q0-75 43-121t116-47q75 0 118 46t43 122v767h180V0H622v152l31-40q-35-65-96-101T412-25ZM160 1265l227 295h150l227-295H590l-127 178-129-178H160Z"/><glyph unicode="ü" horiz-adv-x="936" d="M412-25q-79 0-145 36T162 123t-40 200v767h180V323q0-75 43-121t116-47q75 0 118 46t43 122v767h180V0H622v152l31-40q-35-65-96-101T412-25ZM238 1320v240h160v-240H238Zm297 0v240h159v-240H535Z"/><glyph unicode="ý" horiz-adv-x="840" d="m228-360 97 345L14 1090h196l233-874h-41l228 874h197L416-360H228Zm122 1576 129 344h192l-183-344H350Z"/><glyph unicode="þ" horiz-adv-x="930" d="M134-360v1860h180V940l-31 41q35 64 95 99t145 35q82 0 149-36t109-113 41-199V324q0-122-41-199T673 12 523-25q-85 0-145 35t-95 99l31 41v-510H134Zm343 515q78 0 121 47t44 122v443q0 76-43 122t-122 46q-77 0-120-46t-43-122V323q0-75 43-121t120-47Z"/><glyph unicode="ÿ" horiz-adv-x="840" d="m228-360 97 345L14 1090h196l233-874h-41l228 874h197L416-360H228Zm-32 1680v240h160v-240H196Zm297 0v240h159v-240H493Z"/><glyph unicode="–" horiz-adv-x="1048" d="M134 451v190h780V451H134Z"/><glyph unicode="—" horiz-adv-x="1248" d="M134 451v190h980V451H134Z"/><glyph unicode="‘" horiz-adv-x="483" d="M149 1040v278l54 182h115l-54-182h75v-278H149Z"/><glyph unicode="’" horiz-adv-x="483" d="m165 1040 54 182h-75v278h190v-278l-54-182H165Z"/><glyph unicode="‚" horiz-adv-x="483" d="M165-182 219 0h-75v278h190V0l-54-182H165Z"/><glyph unicode="“" horiz-adv-x="793" d="M459 1040v278l54 182h115l-54-182h75v-278H459Zm-310 0v278l54 182h115l-54-182h75v-278H149Z"/><glyph unicode="”" horiz-adv-x="793" d="m165 1040 54 182h-75v278h190v-278l-54-182H165Zm310 0 54 182h-75v278h190v-278l-54-182H475Z"/><glyph unicode="„" horiz-adv-x="793" d="M165-182 219 0h-75v278h190V0l-54-182H165Zm310 0L529 0h-75v278h190V0l-54-182H475Z"/><glyph unicode="•" horiz-adv-x="721" d="M361 328q-60 0-109 29t-78 79-30 109q0 60 29 109t79 78 109 30q60 0 108-29t78-79 29-109q0-59-29-108t-78-79-108-30Z"/><glyph unicode="‹" horiz-adv-x="602" d="M505 0 42 437v110l463 437V765L225 492l280-273V0Z"/><glyph unicode="›" horiz-adv-x="602" d="M96 0v219l280 273L96 765v219l463-437V437L96 0Z"/></font>
</defs>
</svg>
