<?xml version="1.0" standalone="no"?>
<!DOCTYPE svg PUBLIC "-//W3C//DTD SVG 1.1//EN" "http://www.w3.org/Graphics/SVG/1.1/DTD/svg11.dtd">
<svg xmlns="http://www.w3.org/2000/svg">
<defs >
<font id="Mohave" horiz-adv-x="874" ><font-face
    font-family="Mohave Light Medium"
    units-per-em="2000"
    panose-1="0 0 0 0 0 0 0 0 0 0"
    ascent="1980"
    descent="-806"
    alphabetic="0" />
<glyph unicode=" " horiz-adv-x="445" />
<glyph unicode="!" horiz-adv-x="562" d="M186 420V1500H376V420H186ZM186 0V300H376V0H186Z" />
<glyph unicode="&quot;" horiz-adv-x="872" d="M146 1040L226 1500H406L326 1040H146ZM466 1040L546 1500H726L646 1040H466Z" />
<glyph unicode="#" horiz-adv-x="1165" d="M1067 982H898V584H1067V395H898V0H708V395L458 396V0H268V396H97V585H268V983H97V1172H268V1500H458V1172L708 1171V1500H898V1171H1067V982ZM708 584V982L458 983V585L708 584Z" />
<glyph unicode="$" horiz-adv-x="986" d="M544 -200H434V1700H544V-200ZM494 -32Q331 -32 233 70T134 338V398H324V338Q324 257 370 208T494 158Q572 158 618 207T664 338V464Q664 510 661 536T643 579T593 609T494 644Q359 687 285 716T179 779T141 867T134 1014V1162Q134
1329 232 1430T494 1532Q658 1532 756 1431T854 1162V1102H664V1162Q664 1243 618 1292T494 1342Q416 1342 370 1293T324 1162V1014Q324 969 327 943T345 900T395 869T494 834Q629 791 703 762T809 700T847 612T854 464V338Q854 172 756 70T494 -32Z" />
<glyph unicode="%" horiz-adv-x="1410" d="M297 0L957 1500H1114L454 0H297ZM342 812Q233 812 166 880T98 1059V1280Q98 1391 165 1459T342 1528Q451 1528 518 1460T585 1280V1059Q585 948 518 880T342 812ZM342 958Q385 958 411 986T438 1059V1280Q438 1326 412
1354T342 1382Q298 1382 271 1354T244 1280V1059Q244 1014 271 986T342 958ZM1069 -28Q960 -28 893 40T825 219V440Q825 551 892 619T1069 688Q1178 688 1245 620T1312 440V219Q1312 108 1245 40T1069 -28ZM1069 118Q1112 118 1138 146T1165 219V440Q1165 486 1139
514T1069 542Q1025 542 998 514T971 440V219Q971 174 998 146T1069 118Z" />
<glyph unicode="&amp;" horiz-adv-x="1061" d="M504 -28Q344 -28 246 74T147 342V467Q147 577 190 660T309 787L147 1073V1158Q147 1324 245 1426T507 1528Q671 1528 769 1427T867 1158V1098H677V1158Q677 1239 631 1288T507 1338Q429 1338 383 1289T337 1158V1073L696
458L767 861H926L822 235L937 35V0H762L726 62Q686 19 632 -4T504 -28ZM509 162Q592 162 638 219L406 616Q337 567 337 467V342Q337 261 383 212T509 162Z" />
<glyph unicode="&apos;" horiz-adv-x="552" d="M146 1040L226 1500H406L326 1040H146Z" />
<glyph unicode="(" horiz-adv-x="659" d="M496 -360Q333 -360 235 -258T136 10V1190Q136 1357 234 1458T496 1560H616V1370H496Q418 1370 372 1321T326 1190V10Q326 -71 372 -120T496 -170H616V-360H496Z" />
<glyph unicode=")" horiz-adv-x="660" d="M43 -360V-170H163Q241 -170 287 -121T333 10V1190Q333 1271 287 1320T163 1370H43V1560H163Q327 1560 425 1459T523 1190V10Q523 -156 425 -258T163 -360H43Z" />
<glyph unicode="*" horiz-adv-x="901" d="M384 1500H519V870H384V1500ZM124 1299L190 1416L779 1076L712 959L124 1299ZM779 1298L191 958L124 1075L713 1415L779 1298Z" />
<glyph unicode="+" horiz-adv-x="1076" d="M108 451V641H968V451H108ZM444 937H634V157H444V937Z" />
<glyph unicode="," horiz-adv-x="552" d="M146 -120L226 255H406L326 -120H146Z" />
<glyph unicode="-" horiz-adv-x="848" d="M134 451V641H714V451H134Z" />
<glyph unicode="." horiz-adv-x="562" d="M186 0V255H376V0H186Z" />
<glyph unicode="/" horiz-adv-x="721" d="M-5 -100L531 1560H726L190 -100H-5Z" />
<glyph unicode="0" horiz-adv-x="994" d="M497 -32Q334 -32 236 70T137 338V1162Q137 1329 235 1430T497 1532Q661 1532 759 1431T857 1162V338Q857 172 759 70T497 -32ZM497 158Q575 158 621 207T667 338V1162Q667 1243 621 1292T497 1342Q419 1342 373 1293T327
1162V338Q327 257 373 208T497 158ZM601 1342H717L393 158H278L601 1342Z" />
<glyph unicode="1" horiz-adv-x="597" d="M248 0V1138H34V1328H80Q160 1328 204 1368T248 1478V1500H438V0H248Z" />
<glyph unicode="2" horiz-adv-x="896" d="M84 0V167Q84 282 122 370T221 527T349 653T477 765T576 876T614 1003V1162Q614 1243 568 1292T444 1342Q366 1342 320 1293T274 1162V1102H84V1162Q84 1329 182 1430T444 1532Q608 1532 706 1430T804 1162V1003Q804 914
767 841T670 706T545 587T419 473T322 352T284 212V104L198 190H804V0H84Z" />
<glyph unicode="3" horiz-adv-x="924" d="M438 -32Q275 -32 177 70T78 338V398H268V338Q268 257 314 208T438 158Q516 158 562 207T608 338V494Q608 575 562 624T438 674H308V864H438Q516 864 562 913T608 1044V1162Q608 1243 562 1292T438 1342Q360 1342 314
1293T268 1162V1102H78V1162Q78 1329 176 1430T438 1532Q602 1532 700 1431T798 1162V1044Q798 940 759 861T647 736L648 805Q719 758 758 679T798 494V338Q798 172 700 70T438 -32Z" />
<glyph unicode="4" horiz-adv-x="957" d="M580 0V303H41V473L592 1500H770V492H901V303H770V0H580ZM200 415L153 492H580V1142L200 415Z" />
<glyph unicode="5" horiz-adv-x="961" d="M501 -32Q338 -32 240 70T141 338V398H331V338Q331 257 377 208T501 158Q579 158 625 207T671 338V627Q671 708 625 757T498 807Q420 807 376 758T331 628V609H141V1500H831V1310H245L331 1396V838L296 884Q330 939 384
968T515 997Q616 997 694 951T816 822T861 627V338Q861 172 763 70T501 -32Z" />
<glyph unicode="6" horiz-adv-x="976" d="M497 -32Q334 -32 236 70T137 338V1162Q137 1329 235 1430T497 1532Q661 1532 759 1431T857 1162V1102H667V1162Q667 1243 621 1292T497 1342Q419 1342 373 1293T327 1162V838L292 884Q326 939 380 968T511 997Q612 997
690 951T812 822T857 627V338Q857 172 759 70T497 -32ZM497 158Q575 158 621 207T667 338V627Q667 708 621 757T494 807Q416 807 372 758T327 628V338Q327 257 373 208T497 158Z" />
<glyph unicode="7" horiz-adv-x="781" d="M161 0L565 1392L626 1310H30V1500H735V1328L361 0H161Z" />
<glyph unicode="8" horiz-adv-x="970" d="M485 -32Q322 -32 224 70T125 338V491Q125 596 165 675T275 802L276 733Q205 779 165 858T125 1041V1162Q125 1329 223 1430T485 1532Q649 1532 747 1431T845 1162V1041Q845 937 806 858T694 733L695 802Q766 755 805
676T845 491V338Q845 172 747 70T485 -32ZM485 158Q563 158 609 207T655 338V491Q655 572 609 621T485 671Q407 671 361 622T315 491V338Q315 257 361 208T485 158ZM485 861Q563 861 609 910T655 1041V1162Q655 1243 609 1292T485 1342Q407 1342 361 1293T315 1162V1041Q315
960 361 911T485 861Z" />
<glyph unicode="9" horiz-adv-x="977" d="M480 -32Q317 -32 219 70T120 338V398H310V338Q310 257 356 208T480 158Q558 158 604 207T650 338V662L685 616Q652 561 598 532T466 503Q365 503 287 549T165 679T120 873V1162Q120 1329 218 1430T480 1532Q644 1532
742 1431T840 1162V338Q840 172 742 70T480 -32ZM483 693Q562 693 606 742T650 872V1162Q650 1243 604 1292T480 1342Q402 1342 356 1293T310 1162V873Q310 792 357 743T483 693Z" />
<glyph unicode=":" horiz-adv-x="562" d="M186 635V890H376V635H186ZM186 0V255H376V0H186Z" />
<glyph unicode=";" horiz-adv-x="555" d="M124 -120L204 255H384L304 -120H124ZM194 635V890H384V635H194Z" />
<glyph unicode="&lt;" horiz-adv-x="864" d="M742 0L79 466V606L742 1067V867L278 536L742 202V0Z" />
<glyph unicode="=" horiz-adv-x="1080" d="M200 251V441H880V251H200ZM200 651V841H880V651H200Z" />
<glyph unicode="&gt;" horiz-adv-x="865" d="M120 0V202L584 536L120 867V1067L783 606V466L120 0Z" />
<glyph unicode="?" horiz-adv-x="869" d="M307 349V412Q307 510 336 579T407 702T492 801T563 895T592 1003V1162Q592 1243 546 1292T422 1342Q344 1342 298 1293T252 1162V1102H62V1162Q62 1329 160 1430T422 1532Q586 1532 684 1430T782 1162V1003Q782 923 754
862T683 750T597 648T526 541T497 412V349H307ZM307 0V260H497V0H307Z" />
<glyph unicode="@" horiz-adv-x="1371" d="M687 1528Q846 1528 964 1462T1148 1278T1214 1000V0H1034V68Q998 24 940 -2T815 -28Q688 -28 607 66T525 314V610Q525 764 609 857T825 950Q891 950 947 927T1034 863V1000Q1034 1105 991 1183T869 1304T687 1348Q530
1348 435 1253T339 1000V140Q339 -3 428 -91T663 -179H1063V-359H663Q512 -359 399 -297T222 -122T159 140V1000Q159 1159 225 1277T410 1462T687 1528ZM867 142Q941 142 987 189T1034 314V610Q1034 687 988 733T867 780Q793 780 749 734T705 610V314Q705 237 749
190T867 142Z" />
<glyph unicode="A" horiz-adv-x="917" d="M46 0L358 1500H562L871 0H676L622 278H296L241 0H46ZM328 468H590L446 1235H474L328 468Z" />
<glyph unicode="B" horiz-adv-x="1016" d="M166 0V1500H536Q691 1500 783 1404T876 1150V1015Q876 924 843 851T751 733L747 803Q816 761 856 684T896 505V350Q896 193 804 97T556 0H166ZM356 190H556Q625 190 665 234T706 350V505Q706 577 666 621T556 665H356V190ZM356
855H536Q605 855 645 899T686 1015V1150Q686 1222 646 1266T536 1310H356V855Z" />
<glyph unicode="C" horiz-adv-x="948" d="M864 398V338Q864 172 766 70T504 -32Q341 -32 243 70T144 338V1162Q144 1329 242 1430T504 1532Q668 1532 766 1431T864 1162V1102H674V1162Q674 1243 628 1292T504 1342Q426 1342 380 1293T334 1162V338Q334 257 380
208T504 158Q582 158 628 207T674 338V398H864Z" />
<glyph unicode="D" horiz-adv-x="1012" d="M166 0V1500H516Q680 1500 778 1399T876 1130V370Q876 204 778 102T516 0H166ZM356 190H516Q594 190 640 239T686 370V1130Q686 1211 640 1260T516 1310H356V190Z" />
<glyph unicode="E" horiz-adv-x="861" d="M776 1500V1310H356V860H722V670H356V190H776V0H166V1500H776Z" />
<glyph unicode="F" horiz-adv-x="830" d="M166 0V1500H776V1310H356V740H722V550H356V0H166Z" />
<glyph unicode="G" horiz-adv-x="984" d="M504 -32Q341 -32 243 70T144 338V1162Q144 1329 242 1430T504 1532Q668 1532 766 1431T864 1162V1102H674V1162Q674 1243 628 1292T504 1342Q426 1342 380 1293T334 1162V338Q334 257 380 208T504 158Q582 158 628 207T674
338V540H498V730H864V338Q864 172 766 70T504 -32Z" />
<glyph unicode="H" horiz-adv-x="1022" d="M166 0V1500H356V740H666V1500H856V0H666V550H356V0H166Z" />
<glyph unicode="I" horiz-adv-x="522" d="M356 0H166V1500H356V0Z" />
<glyph unicode="J" horiz-adv-x="657" d="M31 -13V177H143Q221 177 267 226T313 357V1500H503V357Q503 191 405 89T143 -13H31Z" />
<glyph unicode="K" horiz-adv-x="988" d="M741 0L421 751L336 626V939L722 1500H927L550 943L946 0H741ZM166 0V1500H356V0H166Z" />
<glyph unicode="L" horiz-adv-x="773" d="M356 1500V190H736V0H166V1500H356Z" />
<glyph unicode="M" horiz-adv-x="1308" d="M166 0V1500H350L676 255H632L958 1500H1142V0H962V986L984 982L722 0H586L324 982L346 986V0H166Z" />
<glyph unicode="N" horiz-adv-x="1042" d="M166 0V1500H321L748 361L696 357V1500H876V0H721L294 1139L346 1143V0H166Z" />
<glyph unicode="O" horiz-adv-x="1008" d="M504 -32Q341 -32 243 70T144 338V1162Q144 1329 242 1430T504 1532Q668 1532 766 1431T864 1162V338Q864 172 766 70T504 -32ZM504 158Q582 158 628 207T674 338V1162Q674 1243 628 1292T504 1342Q426 1342 380 1293T334
1162V338Q334 257 380 208T504 158Z" />
<glyph unicode="P" horiz-adv-x="947" d="M166 0V1500H536Q691 1500 783 1404T876 1150V975Q876 818 784 722T536 625H356V0H166ZM356 815H536Q605 815 645 859T686 975V1150Q686 1222 646 1266T536 1310H356V815Z" />
<glyph unicode="Q" horiz-adv-x="1008" d="M620 -182L439 438H634L813 -182H620ZM504 -32Q341 -32 243 70T144 338V1162Q144 1329 242 1430T504 1532Q668 1532 766 1431T864 1162V338Q864 172 766 70T504 -32ZM504 158Q582 158 628 207T674 338V1162Q674 1243
628 1292T504 1342Q426 1342 380 1293T334 1162V338Q334 257 380 208T504 158Z" />
<glyph unicode="R" horiz-adv-x="1018" d="M166 0V1500H536Q691 1500 783 1404T876 1150V935Q876 831 834 752T713 627L702 686Q785 655 830 590T876 435V0H686V435Q686 503 646 544T536 585H356V0H166ZM356 775H536Q605 775 645 819T686 935V1150Q686 1222 646
1266T536 1310H356V775Z" />
<glyph unicode="S" horiz-adv-x="939" d="M471 -32Q308 -32 210 70T111 338V398H301V338Q301 257 347 208T471 158Q549 158 595 207T641 338V464Q641 510 638 536T620 579T570 609T471 644Q336 687 262 716T156 779T118 867T111 1014V1162Q111 1329 209 1430T471
1532Q635 1532 733 1431T831 1162V1102H641V1162Q641 1243 595 1292T471 1342Q393 1342 347 1293T301 1162V1014Q301 969 304 943T322 900T372 869T471 834Q606 791 680 762T786 700T824 612T831 464V338Q831 172 733 70T471 -32Z" />
<glyph unicode="T" horiz-adv-x="744" d="M277 0V1310H32V1500H712V1310H467V0H277Z" />
<glyph unicode="U" horiz-adv-x="1032" d="M876 1500V338Q876 172 778 70T516 -32Q353 -32 255 70T156 338V1500H346V338Q346 257 392 208T516 158Q594 158 640 207T686 338V1500H876Z" />
<glyph unicode="V" horiz-adv-x="917" d="M358 0L46 1500H241L475 294H445L676 1500H871L562 0H358Z" />
<glyph unicode="W" horiz-adv-x="1320" d="M272 0L70 1500H265L407 343L384 344L579 1500H741L936 344L913 343L1055 1500H1250L1048 0H844L646 1067H677L476 0H272Z" />
<glyph unicode="X" horiz-adv-x="911" d="M46 0L358 751L46 1500H242L488 917H425L669 1500H865L554 751L865 0H670L425 584H488L241 0H46Z" />
<glyph unicode="Y" horiz-adv-x="931" d="M372 0V740L23 1500H218L498 866H436L713 1500H908L562 740V0H372Z" />
<glyph unicode="Z" horiz-adv-x="851" d="M69 0L68 143L613 1389L664 1310H69V1500H783V1357L238 111L187 190H783V0H69Z" />
<glyph unicode="[" horiz-adv-x="682" d="M159 -360V1560H639V1370H349V-170H639V-360H159Z" />
<glyph unicode="\" horiz-adv-x="721" d="M709 -100H514L-22 1560H173L709 -100Z" />
<glyph unicode="]" horiz-adv-x="682" d="M43 -360V-170H333V1370H43V1560H523V-360H43Z" />
<glyph unicode="^" horiz-adv-x="891" d="M82 987L378 1500H518L809 987H623L448 1315L270 987H82Z" />
<glyph unicode="_" horiz-adv-x="1112" d="M186 -230V-40H926V-230H186Z" />
<glyph unicode="`" horiz-adv-x="435" d="M228 1216L45 1560H237L366 1216H228Z" />
<glyph unicode="a" horiz-adv-x="899" d="M371 -25Q227 -25 149 58T70 271Q70 348 96 400T165 486T257 542Q315 568 375 584T487 618T569 664T601 743V767Q601 843 557 889T435 935Q359 935 315 889T271 767V727H91V757Q91 918 185 1016T435 1115Q539 1115 616
1071T737 945T781 757V0H601V157L632 117Q597 49 531 12T371 -25ZM419 144Q501 144 551 190T601 330V509Q552 476 490 463T368 428Q315 408 283 376T250 288Q250 227 293 186T419 144Z" />
<glyph unicode="b" horiz-adv-x="931" d="M523 -25Q438 -25 378 10T283 109L314 150V0H134V1500H314V940L283 981Q318 1045 378 1080T523 1115Q605 1115 672 1079T781 966T822 767V324Q822 202 781 125T673 12T523 -25ZM477 155Q555 155 598 202T642 324V767Q642
843 599 889T477 935Q400 935 357 889T314 767V323Q314 248 357 202T477 155Z" />
<glyph unicode="c" horiz-adv-x="860" d="M448 -25Q345 -25 267 20T146 146T102 334V757Q102 864 145 945T267 1070T448 1115Q604 1115 698 1017T792 757V737H612V767Q612 843 569 889T448 935Q372 935 327 889T282 767V324Q282 249 327 202T448 155Q525 155 568
202T612 324V354H792V334Q792 173 698 74T448 -25Z" />
<glyph unicode="d" horiz-adv-x="931" d="M408 -25Q327 -25 259 11T150 125T109 324V767Q109 889 150 966T259 1079T408 1115Q493 1115 553 1080T648 981L617 940V1500H797V0H617V150L648 109Q614 46 554 11T408 -25ZM455 155Q532 155 574 201T617 323V767Q617
843 575 889T454 935Q377 935 333 889T289 767V324Q289 249 333 202T455 155Z" />
<glyph unicode="e" horiz-adv-x="888" d="M448 -25Q345 -25 267 20T146 146T102 334V757Q102 864 145 945T267 1070T448 1115Q604 1115 698 1017T792 757V509H252V679H612V767Q612 843 569 889T448 935Q372 935 327 889T282 767V324Q282 249 327 202T448 155Q525
155 568 202T612 324V354H792V334Q792 173 698 74T448 -25Z" />
<glyph unicode="f" horiz-adv-x="648" d="M208 0V922H7V1090H208V1161Q208 1266 251 1347T371 1474T554 1520H641V1340H554Q478 1340 433 1291T388 1161V1090H641V922H388V0H208Z" />
<glyph unicode="g" horiz-adv-x="914" d="M434 -366Q279 -366 185 -267T90 -7V25H270V-17Q270 -92 314 -139T434 -186Q511 -186 555 -139T600 -17V290L631 249Q597 186 537 151T391 115Q310 115 242 151T133 265T92 464V767Q92 889 133 966T242 1079T391 1115Q476
1115 536 1080T631 981L600 940V1090H780V-9Q780 -116 737 -196T615 -321T434 -366ZM438 295Q515 295 557 341T600 463V767Q600 843 558 889T437 935Q360 935 316 889T272 767V464Q272 389 316 342T438 295Z" />
<glyph unicode="h" horiz-adv-x="937" d="M134 0V1500H314V939L283 979Q319 1045 379 1080T525 1116Q604 1116 669 1082T774 978T814 798V0H634V768Q634 844 591 890T475 936Q401 936 358 890T314 768V0H134Z" />
<glyph unicode="i" horiz-adv-x="448" d="M134 0V1090H314V0H134ZM134 1197V1440H314V1197H134Z" />
<glyph unicode="j" horiz-adv-x="448" d="M-96 -366V-186H-31Q45 -186 89 -137T134 -7V1090H314V4Q314 -162 220 -264T-31 -366H-96ZM134 1197V1440H314V1197H134Z" />
<glyph unicode="k" horiz-adv-x="866" d="M673 0L407 568L295 421V689L612 1091H802L525 727L863 0H673ZM134 0V1500H314V0H134Z" />
<glyph unicode="l" horiz-adv-x="448" d="M134 0V1500H314V0H134Z" />
<glyph unicode="m" horiz-adv-x="1437" d="M134 0V1090H314V938L283 978Q319 1044 379 1079T524 1115Q621 1115 697 1065T801 907L756 915Q786 1008 853 1061T1024 1115Q1104 1115 1170 1081T1275 976T1314 797V0H1134V767Q1134 843 1091 889T975 935Q901 935
858 889T814 767V0H634V767Q634 843 591 889T475 935Q401 935 358 889T314 767V0H134Z" />
<glyph unicode="n" horiz-adv-x="935" d="M134 0V1090H314V935L282 971Q318 1042 380 1078T525 1115Q657 1115 735 1022T814 767V0H634V767Q634 843 591 889T475 935Q401 935 358 889T314 767V0H134Z" />
<glyph unicode="o" horiz-adv-x="895" d="M448 -25Q345 -25 267 20T146 146T102 334V757Q102 864 145 945T267 1070T448 1115Q604 1115 698 1017T792 757V334Q792 173 698 74T448 -25ZM448 155Q525 155 568 202T612 324V767Q612 843 569 889T448 935Q372 935 327
889T282 767V324Q282 249 327 202T448 155Z" />
<glyph unicode="p" horiz-adv-x="930" d="M134 -360V1090H314V940L283 981Q318 1045 378 1080T523 1115Q605 1115 672 1079T781 966T822 767V324Q822 202 781 125T673 12T523 -25Q438 -25 378 10T283 109L314 150V-360H134ZM477 155Q555 155 598 202T642 324V767Q642
843 599 889T477 935Q400 935 357 889T314 767V323Q314 248 357 202T477 155Z" />
<glyph unicode="q" horiz-adv-x="930" d="M616 -350V150L647 109Q613 46 553 11T407 -25Q326 -25 258 11T149 125T108 324V767Q108 889 149 966T258 1079T407 1115Q492 1115 552 1080T647 981L616 940V1090H796V-350H616ZM454 155Q531 155 573 201T616 323V767Q616
843 574 889T453 935Q376 935 332 889T288 767V324Q288 249 332 202T454 155Z" />
<glyph unicode="r" horiz-adv-x="578" d="M134 0V1090H314V926L282 964Q318 1033 380 1068T524 1103H572V923H475Q401 923 358 880T314 761V0H134Z" />
<glyph unicode="s" horiz-adv-x="845" d="M429 -25Q271 -25 177 69T83 316V346H263V305Q263 238 307 197T427 155Q499 155 541 197T583 317Q583 366 566 393T513 435T424 461Q322 484 246 510T126 593T83 765Q83 934 175 1024T420 1115Q579 1115 671 1022T763
775V746H583V785Q583 854 540 894T423 935Q350 935 307 894T263 773Q263 725 281 698T335 657T424 630Q524 609 600 583T719 499T763 325Q763 157 672 66T429 -25Z" />
<glyph unicode="t" horiz-adv-x="671" d="M542 -13Q386 -13 292 83T197 346V923H7V1091H197V1360H377V1091H627V923H377V346Q377 265 422 216T542 167H627V-13H542Z" />
<glyph unicode="u" horiz-adv-x="936" d="M412 -25Q333 -25 267 11T162 123T122 323V1090H302V323Q302 248 345 202T461 155Q536 155 579 201T622 323V1090H802V0H622V152L653 112Q618 47 557 11T412 -25Z" />
<glyph unicode="v" horiz-adv-x="842" d="M315 0L14 1090H208L443 200H402L633 1090H827L530 0H315Z" />
<glyph unicode="w" horiz-adv-x="1136" d="M224 0L44 1090H231L345 208L318 209L486 1090H650L818 209L791 208L904 1090H1092L912 0H717L552 802H587L419 0H224Z" />
<glyph unicode="x" horiz-adv-x="799" d="M15 0L310 546L15 1090H205L440 658H360L594 1090H784L490 546L784 0H594L360 434H440L205 0H15Z" />
<glyph unicode="y" horiz-adv-x="840" d="M228 -360L325 -15L14 1090H210L443 216H402L630 1090H827L416 -360H228Z" />
<glyph unicode="z" horiz-adv-x="772" d="M49 0V141L550 983L592 910H57V1090H723V949L233 106L190 180H715V0H49Z" />
<glyph unicode="{" horiz-adv-x="749" d="M586 -360Q423 -360 325 -258T226 10V396Q226 446 199 476T126 506H26V696H126Q172 696 199 726T226 806V1190Q226 1357 324 1458T586 1560H706V1370H586Q508 1370 462 1321T416 1190V806Q416 746 392 692T325 602Q367
566 391 511T416 396V10Q416 -71 462 -120T586 -170H706V-360H586Z" />
<glyph unicode="|" horiz-adv-x="590" d="M390 -300H200V1560H390V-300Z" />
<glyph unicode="}" horiz-adv-x="749" d="M43 -360V-170H163Q241 -170 287 -121T333 10V396Q333 456 357 511T424 602Q382 638 358 692T333 806V1190Q333 1271 287 1320T163 1370H43V1560H163Q327 1560 425 1459T523 1190V806Q523 757 550 727T623 696H723V506H623Q578
506 551 476T523 396V10Q523 -156 425 -258T163 -360H43Z" />
<glyph unicode="~" horiz-adv-x="1155" d="M165 388V434Q165 549 228 613T407 678Q471 678 516 661T595 620T660 580T729 562Q774 562 790 588T806 643V685H987V631Q987 520 930 456T773 392Q715 392 671 411T590 456T517 500T440 519Q398 519 372 495T346 425V388H165Z" />
<glyph unicode="&#xa0;" horiz-adv-x="445" />
<glyph unicode="&#xa1;" horiz-adv-x="562" d="M186 -410V670H376V-410H186ZM186 790V1090H376V790H186Z" />
<glyph unicode="&#xa2;" horiz-adv-x="957" d="M544 -200H434V1290H544V-200ZM492 -25Q389 -25 311 20T190 146T146 334V757Q146 864 189 945T311 1070T492 1115Q648 1115 742 1017T836 757V737H656V767Q656 843 613 889T492 935Q416 935 371 889T326 767V324Q326
249 371 202T492 155Q569 155 612 202T656 324V354H836V334Q836 173 742 74T492 -25Z" />
<glyph unicode="&#xa3;" horiz-adv-x="1074" d="M257 0V1158Q257 1325 355 1426T617 1528Q781 1528 879 1427T977 1158V1098H787V1158Q787 1239 741 1288T617 1338Q539 1338 493 1289T447 1158V0H257ZM117 666V836H707V666H117ZM117 0V170H872V0H117Z" />
<glyph unicode="&#xa4;" horiz-adv-x="1117" d="M231 134L136 230L273 367Q250 406 236 454T221 558Q221 613 235 660T273 745L136 882L231 977L369 840Q451 895 559 895Q668 895 748 842L883 977L979 882L844 747Q869 709 882 661T896 558Q896 448 842 367L979
230L883 134L746 272Q707 245 659 232T559 219Q508 219 460 232T370 273L231 134ZM559 378Q633 378 685 428T737 558Q737 639 685 687T559 736Q486 736 433 688T379 558Q379 478 431 428T559 378Z" />
<glyph unicode="&#xa5;" horiz-adv-x="1031" d="M221 580V750H811V580H221ZM221 223V393H811V223H221ZM422 0V740L73 1500H268L517 968L763 1500H958L612 740V0H422Z" />
<glyph unicode="&#xa6;" horiz-adv-x="590" d="M390 -300H200V431H390V-300ZM390 829H200V1560H390V829Z" />
<glyph unicode="&#xa7;" horiz-adv-x="983" d="M499 -88Q342 -88 248 14T153 282V302H333V271Q333 191 378 142T500 92Q568 92 611 133T654 254Q654 307 634 334T578 375T494 398Q394 420 317 446T197 531T153 706Q153 793 179 854T252 960Q205 1001 177 1065T149
1204Q149 1299 191 1372T309 1486T484 1528Q642 1528 736 1426T830 1158V1138H650V1170Q650 1251 605 1299T483 1348Q415 1348 372 1307T329 1184Q329 1140 345 1114T396 1071T490 1042Q592 1021 668 994T787 909T830 735Q830 650 805 588T731 480Q780 440 807
376T834 237Q834 143 792 70T675 -46T499 -88ZM495 567Q565 568 607 609T650 720Q650 788 606 830T490 873Q420 873 377 832T333 722Q333 652 378 610T495 567Z" />
<glyph unicode="&#xa8;" horiz-adv-x="724" d="M134 1320V1560H294V1320H134ZM431 1320V1560H590V1320H431Z" />
<glyph unicode="&#xa9;" horiz-adv-x="1672" d="M834 -28Q620 -28 458 69T205 341T113 752Q113 985 203 1159T457 1431T838 1528Q1054 1528 1216 1433T1468 1165T1559 759Q1559 526 1469 349T1215 72T834 -28ZM834 102Q1013 102 1146 185T1354 417T1429 759Q1429
953 1355 1096T1148 1319T838 1398Q659 1398 525 1318T317 1092T243 752Q243 555 318 409T526 183T834 102ZM836 282Q737 282 677 343T617 504V996Q617 1096 677 1157T836 1218Q936 1218 994 1157T1053 996V956H923V996Q923 1037 900 1062T836 1088Q795 1088 771
1063T747 996V504Q747 463 771 438T836 412Q877 412 900 438T923 504V544H1053V504Q1053 406 995 344T836 282Z" />
<glyph unicode="&#xaa;" horiz-adv-x="702" d="M299 834Q215 834 169 885T123 1013Q123 1084 156 1120T232 1176Q278 1198 323 1210T398 1241T429 1297V1311Q429 1350 406 1374T343 1398Q304 1398 281 1374T257 1311V1283H135V1303Q135 1401 192 1460T343 1520Q438
1520 494 1460T551 1303V849H429V946L451 919Q430 877 390 856T299 834ZM334 947Q376 947 402 971T429 1045V1147Q405 1130 373 1122T308 1101Q281 1090 264 1073T246 1025Q246 994 268 971T334 947Z" />
<glyph unicode="&#xab;" horiz-adv-x="1125" d="M1028 0L565 437V547L1028 984V765L748 492L1028 219V0ZM505 0L42 437V547L505 984V765L225 492L505 219V0Z" />
<glyph unicode="&#xac;" horiz-adv-x="1121" d="M731 226V451H141V641H921V226H731Z" />
<glyph unicode="&#xad;" horiz-adv-x="848" d="M147 451V641H727V451H147Z" />
<glyph unicode="&#xae;" horiz-adv-x="1672" d="M834 -28Q620 -28 458 69T205 341T113 752Q113 985 203 1159T457 1431T838 1528Q1054 1528 1216 1433T1468 1165T1559 759Q1559 526 1469 349T1215 72T834 -28ZM834 102Q1013 102 1146 185T1354 417T1429 759Q1429
953 1355 1096T1148 1319T838 1398Q659 1398 525 1318T317 1092T243 752Q243 555 318 409T526 183T834 102ZM619 300V1200H841Q937 1200 994 1142T1051 986V852Q1051 747 983 688Q1013 670 1032 638T1051 558V300H921V558Q921 594 900 616T841 638H749V300H619ZM749
768H841Q878 768 899 791T921 852V986Q921 1024 900 1047T841 1070H749V768Z" />
<glyph unicode="&#xaf;" horiz-adv-x="719" d="M134 1500H585V1363H134V1500Z" />
<glyph unicode="&#xb0;" horiz-adv-x="822" d="M411 1007Q341 1007 282 1039T186 1131T150 1267Q150 1345 186 1403T281 1495T410 1528Q481 1528 540 1496T634 1405T670 1267Q670 1190 635 1131T541 1040T411 1007ZM410 1139Q461 1139 499 1174T538 1267Q538 1326
499 1360T410 1395Q359 1395 321 1361T282 1267Q282 1209 320 1174T410 1139Z" />
<glyph unicode="&#xb1;" horiz-adv-x="1044" d="M132 585V775H912V585H132ZM428 1031H618V331H428V1031ZM132 0V190H912V0H132Z" />
<glyph unicode="&#xb2;" horiz-adv-x="573" d="M65 660V777Q65 861 96 919T172 1020T263 1098T340 1170T371 1254V1358Q371 1399 347 1424T282 1450Q243 1450 219 1425T195 1358V1318H65V1358Q65 1457 125 1518T282 1580Q381 1580 441 1519T501 1358V1254Q501
1188 471 1140T397 1052T308 977T233 899T202 804V790H501V660H65Z" />
<glyph unicode="&#xb3;" horiz-adv-x="592" d="M279 640Q180 640 120 701T60 862V902H190V862Q190 822 214 796T279 770Q318 770 342 796T366 862V966Q366 1007 342 1032T279 1058H194V1188H279Q318 1188 342 1213T366 1280V1358Q366 1399 342 1424T279 1450Q239
1450 215 1425T190 1358V1318H60V1358Q60 1457 120 1518T279 1580Q377 1580 436 1519T496 1358V1280Q496 1233 482 1192T436 1122Q464 1096 480 1057T496 966V862Q496 763 437 702T279 640Z" />
<glyph unicode="&#xb4;" horiz-adv-x="435" d="M69 1216L198 1560H390L207 1216H69Z" />
<glyph unicode="&#xb5;" horiz-adv-x="1057" d="M492 -25Q412 -25 346 11T240 127T200 334V1091H380V334Q380 253 423 204T541 155Q618 155 660 204T703 334V449H784V345Q784 179 711 77T492 -25ZM703 0V1091H883V0H703ZM200 -300V1091H380V-300H200Z" />
<glyph unicode="&#xb6;" horiz-adv-x="932" d="M732 -300H542V745H422Q268 745 175 841T82 1095V1150Q82 1308 175 1404T422 1500H732V-300Z" />
<glyph unicode="&#xb7;" horiz-adv-x="542" d="M186 425V665H356V425H186Z" />
<glyph unicode="&#xb8;" horiz-adv-x="538" d="M118 -471V-335H263Q294 -335 313 -318T332 -274Q332 -246 313 -229T263 -211H182L120 -174V39H257V-139L186 -115Q273 -83 336 -101T434 -168T469 -281Q469 -362 413 -416T263 -471H118Z" />
<glyph unicode="&#xb9;" horiz-adv-x="406" d="M156 660V1336H24V1466H56Q103 1466 129 1490T156 1556V1570H286V660H156Z" />
<glyph unicode="&#xba;" horiz-adv-x="674" d="M337 834Q244 834 187 894T129 1052V1303Q129 1401 186 1460T337 1520Q431 1520 488 1461T545 1303V1052Q545 955 489 895T337 834ZM337 956Q377 956 400 980T423 1043V1311Q423 1350 400 1374T337 1398Q298 1398
275 1374T252 1311V1043Q252 1005 275 981T337 956Z" />
<glyph unicode="&#xbb;" horiz-adv-x="1125" d="M619 0V219L899 492L619 765V984L1082 547V437L619 0ZM96 0V219L376 492L96 765V984L559 547V437L96 0Z" />
<glyph unicode="&#xbc;" horiz-adv-x="1443" d="M156 600V1276H24V1406H56Q103 1406 129 1430T156 1496V1510H286V600H156ZM216 0L876 1500H1033L373 0H216ZM1178 0V172H863V287L1189 900H1308V303H1383V172H1308V0H1178ZM999 303H1178V650L999 303Z" />
<glyph unicode="&#xbd;" horiz-adv-x="1416" d="M156 600V1276H24V1406H56Q103 1406 129 1430T156 1496V1510H286V600H156ZM216 0L876 1500H1033L373 0H216ZM908 0V117Q908 201 939 259T1015 360T1106 438T1183 510T1214 594V698Q1214 739 1190 764T1125 790Q1086
790 1062 765T1038 698V658H908V698Q908 797 968 858T1125 920Q1224 920 1284 859T1344 698V594Q1344 528 1314 480T1240 392T1151 317T1076 239T1045 144V130H1344V0H908Z" />
<glyph unicode="&#xbe;" horiz-adv-x="1629" d="M279 580Q180 580 120 641T60 802V842H190V802Q190 762 214 736T279 710Q318 710 342 736T366 802V906Q366 947 342 972T279 998H194V1128H279Q318 1128 342 1153T366 1220V1298Q366 1339 342 1364T279 1390Q239
1390 215 1365T190 1298V1258H60V1298Q60 1397 120 1458T279 1520Q377 1520 436 1459T496 1298V1220Q496 1173 482 1132T436 1062Q464 1036 480 997T496 906V802Q496 703 437 642T279 580ZM402 0L1062 1500H1219L559 0H402ZM1364 0V172H1049V287L1375 900H1494V303H1569V172H1494V0H1364ZM1185
303H1364V650L1185 303Z" />
<glyph unicode="&#xbf;" horiz-adv-x="870" d="M562 741V678Q562 581 534 511T463 388T378 290T306 196T277 87V-72Q277 -153 323 -202T447 -252Q525 -252 571 -203T617 -72V-12H807V-72Q807 -238 709 -340T447 -442Q284 -442 186 -340T87 -72V87Q87 167 116 228T187
341T272 443T343 549T372 678V741H562ZM562 1090V830H372V1090H562Z" />
<glyph unicode="&#xc0;" horiz-adv-x="917" d="M46 0L358 1500H562L871 0H676L622 278H296L241 0H46ZM328 468H590L446 1235H474L328 468ZM394 1626L211 1970H403L532 1626H394Z" />
<glyph unicode="&#xc1;" horiz-adv-x="917" d="M46 0L358 1500H562L871 0H676L622 278H296L241 0H46ZM328 468H590L446 1235H474L328 468ZM388 1626L517 1970H709L526 1626H388Z" />
<glyph unicode="&#xc2;" horiz-adv-x="917" d="M46 0L358 1500H562L871 0H676L622 278H296L241 0H46ZM328 468H590L446 1235H474L328 468ZM156 1675L383 1970H533L760 1675H586L459 1853L330 1675H156Z" />
<glyph unicode="&#xc3;" horiz-adv-x="917" d="M46 0L358 1500H562L871 0H676L622 278H296L241 0H46ZM328 468H590L446 1235H474L328 468ZM590 1665Q544 1665 511 1682T454 1715Q429 1734 409 1748T368 1763Q350 1763 341 1750T332 1717V1675H187V1728Q187 1804
224 1843T324 1883Q368 1883 402 1867T461 1832Q486 1815 506 1800T546 1784Q566 1784 574 1799T582 1832V1878H727V1819Q727 1744 690 1705T590 1665Z" />
<glyph unicode="&#xc4;" horiz-adv-x="917" d="M46 0L358 1500H562L871 0H676L622 278H296L241 0H46ZM328 468H590L446 1235H474L328 468ZM234 1730V1970H394V1730H234ZM531 1730V1970H690V1730H531Z" />
<glyph unicode="&#xc5;" horiz-adv-x="917" d="M46 0L358 1500H562L871 0H676L622 278H296L241 0H46ZM328 468H590L446 1235H474L328 468ZM461 1553Q382 1553 324 1606T265 1748Q265 1836 323 1889T460 1943Q539 1943 597 1890T655 1748Q655 1660 598 1607T461
1553ZM461 1668Q492 1668 516 1690T540 1748Q540 1784 516 1806T460 1828Q430 1828 405 1806T380 1748Q380 1712 405 1690T461 1668Z" />
<glyph unicode="&#xc6;" horiz-adv-x="1301" d="M46 0L358 1500H1216V1310H793V860H1162V670H793V190H1216V0H603V278H298L241 0H46ZM333 468H603V1310H500L333 468Z" />
<glyph unicode="&#xc7;" horiz-adv-x="948" d="M864 398V338Q864 172 766 70T504 -32Q341 -32 243 70T144 338V1162Q144 1329 242 1430T504 1532Q668 1532 766 1431T864 1162V1102H674V1162Q674 1243 628 1292T504 1342Q426 1342 380 1293T334 1162V338Q334 257
380 208T504 158Q582 158 628 207T674 338V398H864ZM442 -471V-335H587Q618 -335 637 -318T656 -274Q656 -246 637 -229T587 -211H506L444 -174V39H581V-139L510 -115Q597 -83 660 -101T758 -168T793 -281Q793 -362 737 -416T587 -471H442Z" />
<glyph unicode="&#xc8;" horiz-adv-x="861" d="M776 1500V1310H356V860H722V670H356V190H776V0H166V1500H776ZM360 1626L177 1970H369L498 1626H360Z" />
<glyph unicode="&#xc9;" horiz-adv-x="861" d="M776 1500V1310H356V860H722V670H356V190H776V0H166V1500H776ZM354 1626L483 1970H675L492 1626H354Z" />
<glyph unicode="&#xca;" horiz-adv-x="861" d="M776 1500V1310H356V860H722V670H356V190H776V0H166V1500H776ZM122 1675L349 1970H499L726 1675H552L425 1853L296 1675H122Z" />
<glyph unicode="&#xcb;" horiz-adv-x="861" d="M776 1500V1310H356V860H722V670H356V190H776V0H166V1500H776ZM200 1730V1970H360V1730H200ZM497 1730V1970H656V1730H497Z" />
<glyph unicode="&#xcc;" horiz-adv-x="522" d="M356 0H166V1500H356V0ZM197 1626L14 1970H206L335 1626H197Z" />
<glyph unicode="&#xcd;" horiz-adv-x="522" d="M356 0H166V1500H356V0ZM191 1626L320 1970H512L329 1626H191Z" />
<glyph unicode="&#xce;" horiz-adv-x="522" d="M356 0H166V1500H356V0ZM-41 1675L186 1970H336L563 1675H389L262 1853L133 1675H-41Z" />
<glyph unicode="&#xcf;" horiz-adv-x="522" d="M356 0H166V1500H356V0ZM37 1730V1970H197V1730H37ZM334 1730V1970H493V1730H334Z" />
<glyph unicode="&#xd0;" horiz-adv-x="1012" d="M22 671V831H502V671H22ZM166 0V1500H516Q680 1500 778 1399T876 1130V370Q876 204 778 102T516 0H166ZM356 190H516Q594 190 640 239T686 370V1130Q686 1211 640 1260T516 1310H356V190Z" />
<glyph unicode="&#xd1;" horiz-adv-x="1042" d="M166 0V1500H321L748 361L696 357V1500H876V0H721L294 1139L346 1143V0H166ZM652 1665Q606 1665 573 1682T516 1715Q491 1734 471 1748T430 1763Q412 1763 403 1750T394 1717V1675H249V1728Q249 1804 286 1843T386
1883Q430 1883 464 1867T523 1832Q548 1815 568 1800T608 1784Q628 1784 636 1799T644 1832V1878H789V1819Q789 1744 752 1705T652 1665Z" />
<glyph unicode="&#xd2;" horiz-adv-x="1008" d="M504 -32Q341 -32 243 70T144 338V1162Q144 1329 242 1430T504 1532Q668 1532 766 1431T864 1162V338Q864 172 766 70T504 -32ZM504 158Q582 158 628 207T674 338V1162Q674 1243 628 1292T504 1342Q426 1342 380
1293T334 1162V338Q334 257 380 208T504 158ZM439 1626L256 1970H448L577 1626H439Z" />
<glyph unicode="&#xd3;" horiz-adv-x="1008" d="M504 -32Q341 -32 243 70T144 338V1162Q144 1329 242 1430T504 1532Q668 1532 766 1431T864 1162V338Q864 172 766 70T504 -32ZM504 158Q582 158 628 207T674 338V1162Q674 1243 628 1292T504 1342Q426 1342 380
1293T334 1162V338Q334 257 380 208T504 158ZM433 1626L562 1970H754L571 1626H433Z" />
<glyph unicode="&#xd4;" horiz-adv-x="1008" d="M504 -32Q341 -32 243 70T144 338V1162Q144 1329 242 1430T504 1532Q668 1532 766 1431T864 1162V338Q864 172 766 70T504 -32ZM504 158Q582 158 628 207T674 338V1162Q674 1243 628 1292T504 1342Q426 1342 380
1293T334 1162V338Q334 257 380 208T504 158ZM201 1675L428 1970H578L805 1675H631L504 1853L375 1675H201Z" />
<glyph unicode="&#xd5;" horiz-adv-x="1008" d="M504 -32Q341 -32 243 70T144 338V1162Q144 1329 242 1430T504 1532Q668 1532 766 1431T864 1162V338Q864 172 766 70T504 -32ZM504 158Q582 158 628 207T674 338V1162Q674 1243 628 1292T504 1342Q426 1342 380
1293T334 1162V338Q334 257 380 208T504 158ZM635 1665Q589 1665 556 1682T499 1715Q474 1734 454 1748T413 1763Q395 1763 386 1750T377 1717V1675H232V1728Q232 1804 269 1843T369 1883Q413 1883 447 1867T506 1832Q531 1815 551 1800T591 1784Q611 1784 619
1799T627 1832V1878H772V1819Q772 1744 735 1705T635 1665Z" />
<glyph unicode="&#xd6;" horiz-adv-x="1008" d="M504 -32Q341 -32 243 70T144 338V1162Q144 1329 242 1430T504 1532Q668 1532 766 1431T864 1162V338Q864 172 766 70T504 -32ZM504 158Q582 158 628 207T674 338V1162Q674 1243 628 1292T504 1342Q426 1342 380
1293T334 1162V338Q334 257 380 208T504 158ZM279 1730V1970H439V1730H279ZM576 1730V1970H735V1730H576Z" />
<glyph unicode="&#xd7;" horiz-adv-x="908" d="M663 205L112 756L246 891L798 339L663 205ZM245 204L111 339L662 890L797 756L245 204Z" />
<glyph unicode="&#xd8;" horiz-adv-x="1008" d="M162 -68H37L848 1566H973L162 -68ZM504 -32Q341 -32 243 70T144 338V1162Q144 1329 242 1430T504 1532Q668 1532 766 1431T864 1162V338Q864 172 766 70T504 -32ZM504 158Q582 158 628 207T674 338V1162Q674 1243
628 1292T504 1342Q426 1342 380 1293T334 1162V338Q334 257 380 208T504 158Z" />
<glyph unicode="&#xd9;" horiz-adv-x="1032" d="M876 1500V338Q876 172 778 70T516 -32Q353 -32 255 70T156 338V1500H346V338Q346 257 392 208T516 158Q594 158 640 207T686 338V1500H876ZM452 1626L269 1970H461L590 1626H452Z" />
<glyph unicode="&#xda;" horiz-adv-x="1032" d="M876 1500V338Q876 172 778 70T516 -32Q353 -32 255 70T156 338V1500H346V338Q346 257 392 208T516 158Q594 158 640 207T686 338V1500H876ZM446 1626L575 1970H767L584 1626H446Z" />
<glyph unicode="&#xdb;" horiz-adv-x="1032" d="M876 1500V338Q876 172 778 70T516 -32Q353 -32 255 70T156 338V1500H346V338Q346 257 392 208T516 158Q594 158 640 207T686 338V1500H876ZM214 1675L441 1970H591L818 1675H644L517 1853L388 1675H214Z" />
<glyph unicode="&#xdc;" horiz-adv-x="1032" d="M876 1500V338Q876 172 778 70T516 -32Q353 -32 255 70T156 338V1500H346V338Q346 257 392 208T516 158Q594 158 640 207T686 338V1500H876ZM292 1730V1970H452V1730H292ZM589 1730V1970H748V1730H589Z" />
<glyph unicode="&#xdd;" horiz-adv-x="931" d="M372 0V740L23 1500H218L498 866H436L713 1500H908L562 740V0H372ZM395 1626L524 1970H716L533 1626H395Z" />
<glyph unicode="&#xde;" horiz-adv-x="947" d="M166 0V1500H356V1286H536Q691 1286 783 1190T876 936V761Q876 604 784 508T536 411H356V0H166ZM356 601H536Q605 601 645 645T686 761V936Q686 1008 646 1052T536 1096H356V601Z" />
<glyph unicode="&#xdf;" horiz-adv-x="992" d="M134 -240V1152Q134 1266 180 1352T310 1485T504 1532Q615 1532 698 1485T828 1352T874 1152V1015Q874 924 841 851T749 733L745 804Q814 760 854 683T894 505V335Q894 178 802 82T554 -15H460V175H554Q623 175 663
219T704 335V505Q704 577 664 621T554 665H462V855H534Q603 855 643 899T684 1015V1152Q684 1238 635 1290T504 1342Q423 1342 374 1290T324 1152V-240H134Z" />
<glyph unicode="&#xe0;" horiz-adv-x="899" d="M371 -25Q227 -25 149 58T70 271Q70 348 96 400T165 486T257 542Q315 568 375 584T487 618T569 664T601 743V767Q601 843 557 889T435 935Q359 935 315 889T271 767V727H91V757Q91 918 185 1016T435 1115Q539 1115
616 1071T737 945T781 757V0H601V157L632 117Q597 49 531 12T371 -25ZM419 144Q501 144 551 190T601 330V509Q552 476 490 463T368 428Q315 408 283 376T250 288Q250 227 293 186T419 144ZM370 1216L187 1560H379L508 1216H370Z" />
<glyph unicode="&#xe1;" horiz-adv-x="899" d="M371 -25Q227 -25 149 58T70 271Q70 348 96 400T165 486T257 542Q315 568 375 584T487 618T569 664T601 743V767Q601 843 557 889T435 935Q359 935 315 889T271 767V727H91V757Q91 918 185 1016T435 1115Q539 1115
616 1071T737 945T781 757V0H601V157L632 117Q597 49 531 12T371 -25ZM419 144Q501 144 551 190T601 330V509Q552 476 490 463T368 428Q315 408 283 376T250 288Q250 227 293 186T419 144ZM364 1216L493 1560H685L502 1216H364Z" />
<glyph unicode="&#xe2;" horiz-adv-x="899" d="M371 -25Q227 -25 149 58T70 271Q70 348 96 400T165 486T257 542Q315 568 375 584T487 618T569 664T601 743V767Q601 843 557 889T435 935Q359 935 315 889T271 767V727H91V757Q91 918 185 1016T435 1115Q539 1115
616 1071T737 945T781 757V0H601V157L632 117Q597 49 531 12T371 -25ZM419 144Q501 144 551 190T601 330V509Q552 476 490 463T368 428Q315 408 283 376T250 288Q250 227 293 186T419 144ZM132 1265L359 1560H509L736 1265H562L435 1443L306 1265H132Z" />
<glyph unicode="&#xe3;" horiz-adv-x="899" d="M371 -25Q227 -25 149 58T70 271Q70 348 96 400T165 486T257 542Q315 568 375 584T487 618T569 664T601 743V767Q601 843 557 889T435 935Q359 935 315 889T271 767V727H91V757Q91 918 185 1016T435 1115Q539 1115
616 1071T737 945T781 757V0H601V157L632 117Q597 49 531 12T371 -25ZM419 144Q501 144 551 190T601 330V509Q552 476 490 463T368 428Q315 408 283 376T250 288Q250 227 293 186T419 144ZM566 1511Q520 1511 487 1528T430 1561Q405 1580 385 1594T344 1609Q326
1609 317 1596T308 1563V1521H163V1574Q163 1650 200 1689T300 1729Q344 1729 378 1713T437 1678Q462 1661 482 1646T522 1630Q542 1630 550 1645T558 1678V1724H703V1665Q703 1590 666 1551T566 1511Z" />
<glyph unicode="&#xe4;" horiz-adv-x="899" d="M371 -25Q227 -25 149 58T70 271Q70 348 96 400T165 486T257 542Q315 568 375 584T487 618T569 664T601 743V767Q601 843 557 889T435 935Q359 935 315 889T271 767V727H91V757Q91 918 185 1016T435 1115Q539 1115
616 1071T737 945T781 757V0H601V157L632 117Q597 49 531 12T371 -25ZM419 144Q501 144 551 190T601 330V509Q552 476 490 463T368 428Q315 408 283 376T250 288Q250 227 293 186T419 144ZM210 1320V1560H370V1320H210ZM507 1320V1560H666V1320H507Z" />
<glyph unicode="&#xe5;" horiz-adv-x="899" d="M371 -25Q227 -25 149 58T70 271Q70 348 96 400T165 486T257 542Q315 568 375 584T487 618T569 664T601 743V767Q601 843 557 889T435 935Q359 935 315 889T271 767V727H91V757Q91 918 185 1016T435 1115Q539 1115
616 1071T737 945T781 757V0H601V157L632 117Q597 49 531 12T371 -25ZM419 144Q501 144 551 190T601 330V509Q552 476 490 463T368 428Q315 408 283 376T250 288Q250 227 293 186T419 144ZM437 1143Q358 1143 300 1196T241 1338Q241 1426 299 1479T436 1533Q515
1533 573 1480T631 1338Q631 1250 574 1197T437 1143ZM437 1258Q468 1258 492 1280T516 1338Q516 1374 492 1396T436 1418Q406 1418 381 1396T356 1338Q356 1302 381 1280T437 1258Z" />
<glyph unicode="&#xe6;" horiz-adv-x="1387" d="M368 -25Q227 -25 149 58T70 271Q70 349 96 401T165 486T257 542Q315 568 375 584T487 618T569 664T601 743V767Q601 843 557 889T435 935Q359 935 315 889T271 767V727H91V757Q91 918 185 1016T435 1115Q532 1115
607 1075T727 963H658Q701 1035 776 1075T947 1115Q1103 1115 1197 1017T1291 757V509H781V324Q781 249 826 202T947 155Q1024 155 1067 202T1111 324V354H1291V334Q1291 173 1197 74T947 -25Q834 -25 750 30T629 179L679 191Q643 78 557 27T368 -25ZM419 144Q501
144 551 190T601 330V509Q552 476 490 463T368 428Q315 408 283 376T250 288Q250 227 293 186T419 144ZM781 679H1111V767Q1111 843 1068 889T947 935Q871 935 826 889T781 767V679Z" />
<glyph unicode="&#xe7;" horiz-adv-x="860" d="M448 -25Q345 -25 267 20T146 146T102 334V757Q102 864 145 945T267 1070T448 1115Q604 1115 698 1017T792 757V737H612V767Q612 843 569 889T448 935Q372 935 327 889T282 767V324Q282 249 327 202T448 155Q525
155 568 202T612 324V354H792V334Q792 173 698 74T448 -25ZM386 -471V-335H531Q562 -335 581 -318T600 -274Q600 -246 581 -229T531 -211H450L388 -174V39H525V-139L454 -115Q541 -83 604 -101T702 -168T737 -281Q737 -362 681 -416T531 -471H386Z" />
<glyph unicode="&#xe8;" horiz-adv-x="888" d="M448 -25Q345 -25 267 20T146 146T102 334V757Q102 864 145 945T267 1070T448 1115Q604 1115 698 1017T792 757V509H252V679H612V767Q612 843 569 889T448 935Q372 935 327 889T282 767V324Q282 249 327 202T448
155Q525 155 568 202T612 324V354H792V334Q792 173 698 74T448 -25ZM383 1216L200 1560H392L521 1216H383Z" />
<glyph unicode="&#xe9;" horiz-adv-x="888" d="M448 -25Q345 -25 267 20T146 146T102 334V757Q102 864 145 945T267 1070T448 1115Q604 1115 698 1017T792 757V509H252V679H612V767Q612 843 569 889T448 935Q372 935 327 889T282 767V324Q282 249 327 202T448
155Q525 155 568 202T612 324V354H792V334Q792 173 698 74T448 -25ZM377 1216L506 1560H698L515 1216H377Z" />
<glyph unicode="&#xea;" horiz-adv-x="888" d="M448 -25Q345 -25 267 20T146 146T102 334V757Q102 864 145 945T267 1070T448 1115Q604 1115 698 1017T792 757V509H252V679H612V767Q612 843 569 889T448 935Q372 935 327 889T282 767V324Q282 249 327 202T448
155Q525 155 568 202T612 324V354H792V334Q792 173 698 74T448 -25ZM145 1265L372 1560H522L749 1265H575L448 1443L319 1265H145Z" />
<glyph unicode="&#xeb;" horiz-adv-x="888" d="M448 -25Q345 -25 267 20T146 146T102 334V757Q102 864 145 945T267 1070T448 1115Q604 1115 698 1017T792 757V509H252V679H612V767Q612 843 569 889T448 935Q372 935 327 889T282 767V324Q282 249 327 202T448
155Q525 155 568 202T612 324V354H792V334Q792 173 698 74T448 -25ZM223 1320V1560H383V1320H223ZM520 1320V1560H679V1320H520Z" />
<glyph unicode="&#xec;" horiz-adv-x="448" d="M134 0V1090H314V0H134ZM416 1216L233 1560H425L554 1216H416Z" />
<glyph unicode="&#xed;" horiz-adv-x="448" d="M134 0V1090H314V0H134ZM154 1216L283 1560H475L292 1216H154Z" />
<glyph unicode="&#xee;" horiz-adv-x="448" d="M134 0V1090H314V0H134ZM178 1265L405 1560H555L782 1265H608L481 1443L352 1265H178Z" />
<glyph unicode="&#xef;" horiz-adv-x="448" d="M134 0V1090H314V0H134ZM0 1320V1560H160V1320H0ZM297 1320V1560H456V1320H297Z" />
<glyph unicode="&#xf0;" horiz-adv-x="931" d="M503 1500Q635 1500 716 1415T797 1191V0H617V150L648 109Q614 46 554 11T408 -25Q327 -25 259 11T150 125T109 324V767Q109 889 150 966T259 1079T408 1115Q493 1115 553 1080T648 981L617 940V1191Q617 1267 573
1313T453 1360H405V1500H503ZM455 155Q532 155 574 201T617 323V767Q617 843 575 889T454 935Q377 935 333 889T289 767V324Q289 249 333 202T455 155ZM463 1139V1261L899 1378V1256L463 1139Z" />
<glyph unicode="&#xf1;" horiz-adv-x="935" d="M134 0V1090H314V935L282 971Q318 1042 380 1078T525 1115Q657 1115 735 1022T814 767V0H634V767Q634 843 591 889T475 935Q401 935 358 889T314 767V0H134ZM605 1511Q559 1511 526 1528T469 1561Q444 1580 424 1594T383
1609Q365 1609 356 1596T347 1563V1521H202V1574Q202 1650 239 1689T339 1729Q383 1729 417 1713T476 1678Q501 1661 521 1646T561 1630Q581 1630 589 1645T597 1678V1724H742V1665Q742 1590 705 1551T605 1511Z" />
<glyph unicode="&#xf2;" horiz-adv-x="895" d="M448 -25Q345 -25 267 20T146 146T102 334V757Q102 864 145 945T267 1070T448 1115Q604 1115 698 1017T792 757V334Q792 173 698 74T448 -25ZM448 155Q525 155 568 202T612 324V767Q612 843 569 889T448 935Q372
935 327 889T282 767V324Q282 249 327 202T448 155ZM383 1216L200 1560H392L521 1216H383Z" />
<glyph unicode="&#xf3;" horiz-adv-x="895" d="M448 -25Q345 -25 267 20T146 146T102 334V757Q102 864 145 945T267 1070T448 1115Q604 1115 698 1017T792 757V334Q792 173 698 74T448 -25ZM448 155Q525 155 568 202T612 324V767Q612 843 569 889T448 935Q372
935 327 889T282 767V324Q282 249 327 202T448 155ZM377 1216L506 1560H698L515 1216H377Z" />
<glyph unicode="&#xf4;" horiz-adv-x="895" d="M448 -25Q345 -25 267 20T146 146T102 334V757Q102 864 145 945T267 1070T448 1115Q604 1115 698 1017T792 757V334Q792 173 698 74T448 -25ZM448 155Q525 155 568 202T612 324V767Q612 843 569 889T448 935Q372
935 327 889T282 767V324Q282 249 327 202T448 155ZM145 1265L372 1560H522L749 1265H575L448 1443L319 1265H145Z" />
<glyph unicode="&#xf5;" horiz-adv-x="895" d="M448 -25Q345 -25 267 20T146 146T102 334V757Q102 864 145 945T267 1070T448 1115Q604 1115 698 1017T792 757V334Q792 173 698 74T448 -25ZM448 155Q525 155 568 202T612 324V767Q612 843 569 889T448 935Q372
935 327 889T282 767V324Q282 249 327 202T448 155ZM579 1511Q533 1511 500 1528T443 1561Q418 1580 398 1594T357 1609Q339 1609 330 1596T321 1563V1521H176V1574Q176 1650 213 1689T313 1729Q357 1729 391 1713T450 1678Q475 1661 495 1646T535 1630Q555 1630
563 1645T571 1678V1724H716V1665Q716 1590 679 1551T579 1511Z" />
<glyph unicode="&#xf6;" horiz-adv-x="895" d="M448 -25Q345 -25 267 20T146 146T102 334V757Q102 864 145 945T267 1070T448 1115Q604 1115 698 1017T792 757V334Q792 173 698 74T448 -25ZM448 155Q525 155 568 202T612 324V767Q612 843 569 889T448 935Q372
935 327 889T282 767V324Q282 249 327 202T448 155ZM223 1320V1560H383V1320H223ZM520 1320V1560H679V1320H520Z" />
<glyph unicode="&#xf7;" horiz-adv-x="1062" d="M101 451V641H961V451H101ZM437 117V372H627V117H437ZM437 722V977H627V722H437Z" />
<glyph unicode="&#xf8;" horiz-adv-x="895" d="M193 -41H68L701 1130H826L193 -41ZM448 -25Q345 -25 267 20T146 146T102 334V757Q102 864 145 945T267 1070T448 1115Q604 1115 698 1017T792 757V334Q792 173 698 74T448 -25ZM448 155Q525 155 568 202T612 324V767Q612
843 569 889T448 935Q372 935 327 889T282 767V324Q282 249 327 202T448 155Z" />
<glyph unicode="&#xf9;" horiz-adv-x="936" d="M412 -25Q333 -25 267 11T162 123T122 323V1090H302V323Q302 248 345 202T461 155Q536 155 579 201T622 323V1090H802V0H622V152L653 112Q618 47 557 11T412 -25ZM398 1216L215 1560H407L536 1216H398Z" />
<glyph unicode="&#xfa;" horiz-adv-x="936" d="M412 -25Q333 -25 267 11T162 123T122 323V1090H302V323Q302 248 345 202T461 155Q536 155 579 201T622 323V1090H802V0H622V152L653 112Q618 47 557 11T412 -25ZM392 1216L521 1560H713L530 1216H392Z" />
<glyph unicode="&#xfb;" horiz-adv-x="936" d="M412 -25Q333 -25 267 11T162 123T122 323V1090H302V323Q302 248 345 202T461 155Q536 155 579 201T622 323V1090H802V0H622V152L653 112Q618 47 557 11T412 -25ZM160 1265L387 1560H537L764 1265H590L463 1443L334
1265H160Z" />
<glyph unicode="&#xfc;" horiz-adv-x="936" d="M412 -25Q333 -25 267 11T162 123T122 323V1090H302V323Q302 248 345 202T461 155Q536 155 579 201T622 323V1090H802V0H622V152L653 112Q618 47 557 11T412 -25ZM238 1320V1560H398V1320H238ZM535 1320V1560H694V1320H535Z" />
<glyph unicode="&#xfd;" horiz-adv-x="840" d="M228 -360L325 -15L14 1090H210L443 216H402L630 1090H827L416 -360H228ZM350 1216L479 1560H671L488 1216H350Z" />
<glyph unicode="&#xfe;" horiz-adv-x="930" d="M134 -360V1500H314V940L283 981Q318 1045 378 1080T523 1115Q605 1115 672 1079T781 966T822 767V324Q822 202 781 125T673 12T523 -25Q438 -25 378 10T283 109L314 150V-360H134ZM477 155Q555 155 598 202T642
324V767Q642 843 599 889T477 935Q400 935 357 889T314 767V323Q314 248 357 202T477 155Z" />
<glyph unicode="&#xff;" horiz-adv-x="840" d="M228 -360L325 -15L14 1090H210L443 216H402L630 1090H827L416 -360H228ZM196 1320V1560H356V1320H196ZM493 1320V1560H652V1320H493Z" />
<glyph unicode="&#x2013;" horiz-adv-x="1048" d="M134 451V641H914V451H134Z" />
<glyph unicode="&#x2014;" horiz-adv-x="1248" d="M134 451V641H1114V451H134Z" />
<glyph unicode="&#x2018;" horiz-adv-x="483" d="M149 1040V1318L203 1500H318L264 1318H339V1040H149Z" />
<glyph unicode="&#x2019;" horiz-adv-x="483" d="M165 1040L219 1222H144V1500H334V1222L280 1040H165Z" />
<glyph unicode="&#x201a;" horiz-adv-x="483" d="M165 -182L219 0H144V278H334V0L280 -182H165Z" />
<glyph unicode="&#x201c;" horiz-adv-x="793" d="M459 1040V1318L513 1500H628L574 1318H649V1040H459ZM149 1040V1318L203 1500H318L264 1318H339V1040H149Z" />
<glyph unicode="&#x201d;" horiz-adv-x="793" d="M165 1040L219 1222H144V1500H334V1222L280 1040H165ZM475 1040L529 1222H454V1500H644V1222L590 1040H475Z" />
<glyph unicode="&#x201e;" horiz-adv-x="793" d="M165 -182L219 0H144V278H334V0L280 -182H165ZM475 -182L529 0H454V278H644V0L590 -182H475Z" />
<glyph unicode="&#x2022;" horiz-adv-x="721" d="M361 328Q301 328 252 357T174 436T144 545Q144 605 173 654T252 732T361 762Q421 762 469 733T547 654T576 545Q576 486 547 437T469 358T361 328Z" />
<glyph unicode="&#x2039;" horiz-adv-x="602" d="M505 0L42 437V547L505 984V765L225 492L505 219V0Z" />
<glyph unicode="&#x203a;" horiz-adv-x="602" d="M96 0V219L376 492L96 765V984L559 547V437L96 0Z" />
</font>
</defs>
</svg>
